<svg width="135" height="100" viewBox="0 0 135 100" fill="none" xmlns="http://www.w3.org/2000/svg">
<path opacity="0.1" fill-rule="evenodd" clip-rule="evenodd" d="M76.7626 0.615234V49.8932H115.012C115.001 58.6009 110.968 66.9492 103.798 73.1073C96.627 79.2654 86.9046 82.7304 76.7626 82.7423V99.1631C91.9758 99.1473 106.561 93.9511 117.317 84.7144C128.074 75.4778 134.124 62.9549 134.14 49.8932V0.615234H76.7626ZM0.265137 49.8932H38.5139C38.503 58.6008 34.4701 66.9492 27.2997 73.1073C20.1294 79.2655 10.407 82.7304 0.265137 82.7423V99.1631C15.4779 99.1471 30.0622 93.9507 40.8182 84.714C51.5742 75.4773 57.6236 62.9546 57.6392 49.8932V0.615234H0.265137V49.8932Z" fill="#4F5B6D"/>
</svg>
