<svg width="50" height="43" viewBox="0 0 50 43" fill="none" xmlns="http://www.w3.org/2000/svg">
<path fill-rule="evenodd" clip-rule="evenodd" d="M1.7073 42.9254H36.8686C37.2558 42.925 37.627 42.7927 37.9007 42.5577C38.1745 42.3226 38.3285 42.0039 38.329 41.6715V8.98296C38.3274 8.65094 38.1725 8.33293 37.8983 8.09876L29.1642 0.591636C28.886 0.359389 28.5132 0.229647 28.1251 0.229987H1.7073C1.51658 0.229456 1.32768 0.261364 1.15136 0.323784C0.975036 0.386204 0.81484 0.478004 0.679978 0.593795C0.545116 0.709585 0.438196 0.847029 0.365494 0.998418C0.292793 1.14981 0.255744 1.31209 0.256362 1.47584V41.6715C0.2555 41.8357 0.292309 41.9984 0.364809 42.1503C0.437308 42.3022 0.544047 42.4404 0.678835 42.5569C0.813623 42.6734 0.973842 42.7658 1.15033 42.8291C1.32682 42.8923 1.51607 42.9251 1.7073 42.9254ZM29.5855 4.49796L33.3581 7.72906H29.5855V4.49796ZM3.16773 2.72974H26.6741V8.98296C26.6732 9.14715 26.7101 9.30982 26.7826 9.46176C26.8551 9.61369 26.9618 9.75187 27.0966 9.86835C27.2313 9.98482 27.3916 10.0773 27.5681 10.1405C27.7445 10.2037 27.9339 10.2364 28.1251 10.2367H35.4176V40.4257H3.16773V2.72974ZM7.53953 10.2367H22.3023C22.6896 10.2367 23.0611 10.1047 23.335 9.86952C23.6089 9.63438 23.7627 9.3155 23.7627 8.98296C23.7627 8.65042 23.6089 8.33135 23.335 8.0962C23.0611 7.86106 22.6896 7.72906 22.3023 7.72906H7.53953C7.15221 7.72906 6.7807 7.86106 6.50683 8.0962C6.23296 8.33135 6.0791 8.65042 6.0791 8.98296C6.0791 9.3155 6.23296 9.63438 6.50683 9.86952C6.7807 10.1047 7.15221 10.2367 7.53953 10.2367ZM31.0459 22.7431H28.1251C27.7391 22.7431 27.3688 22.8749 27.0958 23.1093C26.8228 23.3437 26.6694 23.6614 26.6694 23.9929C26.6694 24.3244 26.8228 24.6423 27.0958 24.8767C27.3688 25.1111 27.7391 25.2429 28.1251 25.2429H31.0459C31.432 25.2429 31.8022 25.1111 32.0751 24.8767C32.3481 24.6423 32.5015 24.3244 32.5015 23.9929C32.5015 23.6614 32.3481 23.3437 32.0751 23.1093C31.8022 22.8749 31.432 22.7431 31.0459 22.7431ZM31.0459 27.7505H28.1251C27.7391 27.7505 27.3688 27.8822 27.0958 28.1166C26.8228 28.351 26.6694 28.669 26.6694 29.0004C26.6694 29.3319 26.8228 29.6497 27.0958 29.8841C27.3688 30.1185 27.7391 30.2502 28.1251 30.2502H31.0459C31.432 30.2502 31.8022 30.1185 32.0751 29.8841C32.3481 29.6497 32.5015 29.3319 32.5015 29.0004C32.5015 28.669 32.3481 28.351 32.0751 28.1166C31.8022 27.8822 31.432 27.7505 31.0459 27.7505ZM48.5235 5.2293H42.7007C42.3136 5.22973 41.9424 5.36199 41.6686 5.59704C41.3948 5.83209 41.2409 6.15079 41.2404 6.48321V29.0848C41.244 29.2184 41.2691 29.351 41.3153 29.4787L44.2266 36.9856C44.3249 37.2341 44.5115 37.45 44.7599 37.6029C45.0084 37.7558 45.3064 37.838 45.6121 37.838C45.9178 37.838 46.2159 37.7558 46.4643 37.6029C46.7128 37.45 46.8993 37.2341 46.9976 36.9856L49.909 29.4787C49.9581 29.3516 49.9834 29.2187 49.9839 29.0848V6.48321C49.9834 6.15079 49.8293 5.83209 49.5556 5.59704C49.2818 5.36199 48.9106 5.22973 48.5235 5.2293ZM47.0725 7.72906V27.8309H44.1518V7.72906H47.0725ZM44.7228 30.3305H46.5015L45.6121 32.6293L44.7228 30.3305ZM31.0459 16.4899C31.0454 16.1575 30.8913 15.8388 30.6176 15.6037C30.3438 15.3687 29.9726 15.2366 29.5855 15.2362H23.7627C23.3754 15.2362 23.004 15.3682 22.7301 15.6033C22.4563 15.8385 22.3023 16.1573 22.3023 16.4899C22.3023 16.8224 22.4563 17.1415 22.7301 17.3766C23.004 17.6118 23.3754 17.7438 23.7627 17.7438H29.5855C29.9726 17.7434 30.3438 17.6111 30.6176 17.3761C30.8913 17.141 31.0454 16.8223 31.0459 16.4899ZM13.3623 18.9896V17.7438H14.8226C15.2099 17.7438 15.5814 17.6118 15.8553 17.3766C16.1291 17.1415 16.283 16.8224 16.283 16.4899C16.283 16.1573 16.1291 15.8385 15.8553 15.6033C15.5814 15.3682 15.2099 15.2362 14.8226 15.2362H13.3623V13.9903C13.3623 13.8262 13.3246 13.6636 13.2514 13.5119C13.1783 13.3603 13.0711 13.2226 12.9359 13.1065C12.8007 12.9905 12.6402 12.8983 12.4636 12.8355C12.287 12.7727 12.0977 12.7403 11.9065 12.7403C11.7154 12.7403 11.526 12.7727 11.3494 12.8355C11.1728 12.8983 11.0124 12.9905 10.8773 13.1065C10.7421 13.2226 10.6348 13.3603 10.5616 13.5119C10.4885 13.6636 10.4509 13.8262 10.4509 13.9903V15.2362H8.99047C8.60315 15.2362 8.23176 15.3682 7.95788 15.6033C7.68401 15.8385 7.53016 16.1573 7.53016 16.4899C7.53016 16.8224 7.68401 17.1415 7.95788 17.3766C8.23176 17.6118 8.60315 17.7438 8.99047 17.7438H10.4509V18.9896C10.4509 19.1538 10.4885 19.3162 10.5616 19.4679C10.6348 19.6195 10.7421 19.7574 10.8773 19.8735C11.0124 19.9895 11.1728 20.0814 11.3494 20.1443C11.526 20.2071 11.7154 20.2394 11.9065 20.2394C12.0977 20.2394 12.287 20.2071 12.4636 20.1443C12.6402 20.0814 12.8007 19.9895 12.9359 19.8735C13.0711 19.7574 13.1783 19.6195 13.2514 19.4679C13.3246 19.3162 13.3623 19.1538 13.3623 18.9896ZM22.3023 22.7431C22.5898 22.7439 22.8706 22.8178 23.1093 22.9554C23.348 23.0931 23.5338 23.2884 23.6434 23.5166C23.753 23.7448 23.7814 23.9957 23.7251 24.2378C23.6688 24.4798 23.5303 24.7021 23.327 24.8767C23.1237 25.0512 22.8648 25.1702 22.5828 25.2185C22.3009 25.2669 22.0086 25.2426 21.7428 25.1485C21.477 25.0544 21.2496 24.8948 21.0893 24.6899C20.929 24.485 20.8429 24.2439 20.842 23.997C20.8425 23.6646 20.9965 23.3459 21.2703 23.1108C21.544 22.8758 21.9151 22.7435 22.3023 22.7431ZM22.3023 27.7505C22.5902 27.7513 22.8715 27.8254 23.1103 27.9634C23.3492 28.1014 23.535 28.2971 23.6443 28.5258C23.7536 28.7544 23.7815 29.0058 23.7244 29.2481C23.6674 29.4904 23.5279 29.7128 23.3237 29.887C23.1194 30.0612 22.8596 30.1794 22.577 30.2269C22.2945 30.2743 22.0019 30.2488 21.7363 30.1535C21.4707 30.0582 21.2439 29.8973 21.0847 29.6914C20.9255 29.4854 20.8411 29.2435 20.842 28.9963C20.8423 28.8321 20.8804 28.6696 20.9541 28.5181C21.0277 28.3666 21.1354 28.229 21.2711 28.1133C21.4067 27.9976 21.5677 27.9059 21.7446 27.8437C21.9216 27.7814 22.1111 27.7497 22.3023 27.7505ZM16.4702 22.7431H13.3623C12.9762 22.7431 12.6059 22.8749 12.3329 23.1093C12.0599 23.3437 11.9065 23.6614 11.9065 23.9929C11.9065 24.3244 12.0599 24.6423 12.3329 24.8767C12.6059 25.1111 12.9762 25.2429 13.3623 25.2429H16.4702C16.8563 25.2429 17.2266 25.1111 17.4996 24.8767C17.7726 24.6423 17.9259 24.3244 17.9259 23.9929C17.9259 23.6614 17.7726 23.3437 17.4996 23.1093C17.2266 22.8749 16.8563 22.7431 16.4702 22.7431ZM16.4702 27.7505H13.3623C12.9762 27.7505 12.6059 27.8822 12.3329 28.1166C12.0599 28.351 11.9065 28.669 11.9065 29.0004C11.9065 29.3319 12.0599 29.6497 12.3329 29.8841C12.6059 30.1185 12.9762 30.2502 13.3623 30.2502H16.4702C16.8563 30.2502 17.2266 30.1185 17.4996 29.8841C17.7726 29.6497 17.9259 29.3319 17.9259 29.0004C17.9259 28.669 17.7726 28.351 17.4996 28.1166C17.2266 27.8822 16.8563 27.7505 16.4702 27.7505ZM16.4702 32.7498H13.3623C12.9749 32.7498 12.6034 32.882 12.3296 33.1171C12.0557 33.3523 11.9018 33.6711 11.9018 34.0037C11.9018 34.3362 12.0557 34.6551 12.3296 34.8902C12.6034 35.1254 12.9749 35.2576 13.3623 35.2576H16.4702C16.8575 35.2576 17.229 35.1254 17.5029 34.8902C17.7768 34.6551 17.9306 34.3362 17.9306 34.0037C17.9306 33.6711 17.7768 33.3523 17.5029 33.1171C17.229 32.882 16.8575 32.7498 16.4702 32.7498ZM7.53953 22.7431C7.82703 22.7439 8.10775 22.8178 8.34642 22.9554C8.58509 23.0931 8.77094 23.2884 8.88054 23.5166C8.99013 23.7448 9.01856 23.9957 8.96224 24.2378C8.90592 24.4798 8.76741 24.7021 8.56411 24.8767C8.36081 25.0512 8.10189 25.1702 7.81996 25.2185C7.53802 25.2669 7.24572 25.2426 6.97992 25.1485C6.71412 25.0544 6.4867 24.8948 6.32639 24.6899C6.16608 24.485 6.08003 24.2439 6.0791 23.997C6.07823 23.8321 6.11538 23.6687 6.18846 23.5162C6.26154 23.3638 6.3691 23.2253 6.50489 23.1087C6.64067 22.9921 6.80201 22.8998 6.97958 22.8371C7.15715 22.7743 7.3475 22.7424 7.53953 22.7431ZM7.53953 27.7505C7.9256 27.7505 8.2958 27.8822 8.5688 28.1166C8.84179 28.351 8.99515 28.669 8.99515 29.0004C8.99515 29.3319 8.84179 29.6497 8.5688 29.8841C8.2958 30.1185 7.9256 30.2502 7.53953 30.2502C7.15345 30.2502 6.78314 30.1185 6.51014 29.8841C6.23715 29.6497 6.08378 29.3319 6.08378 29.0004C6.08378 28.669 6.23715 28.351 6.51014 28.1166C6.78314 27.8822 7.15345 27.7505 7.53953 27.7505ZM7.53953 32.7498C7.82836 32.7498 8.11072 32.8233 8.35087 32.9611C8.59103 33.0989 8.77812 33.2948 8.88865 33.5239C8.99918 33.753 9.02819 34.0052 8.97184 34.2484C8.91549 34.4916 8.77635 34.7149 8.57211 34.8902C8.36787 35.0656 8.1077 35.1851 7.82441 35.2334C7.54113 35.2818 7.24746 35.2571 6.98061 35.1622C6.71376 35.0673 6.48571 34.9065 6.32525 34.7003C6.16478 34.4941 6.0791 34.2517 6.0791 34.0037C6.07823 33.8388 6.11538 33.6754 6.18846 33.5229C6.26154 33.3705 6.3691 33.2319 6.50489 33.1154C6.64067 32.9988 6.80201 32.9065 6.97958 32.8438C7.15715 32.781 7.3475 32.749 7.53953 32.7498Z" fill="#CB4700"/>
</svg>
