<svg width="1534" height="965" viewBox="0 0 1534 965" fill="none" xmlns="http://www.w3.org/2000/svg">
<path d="M1534 -3H0V965H1534V-3Z" fill="url(#paint0_linear)"/>
<path d="M1091.5 965H314.333V626.398H497.278C517.352 623.527 537.807 624.687 557.415 629.808C577.022 634.929 595.377 643.906 611.375 656.2C627.373 668.493 640.684 683.848 650.509 701.342C660.333 718.836 666.467 738.108 668.543 757.999C678.834 739.307 708.831 737.507 724.113 752.521C739.395 767.535 739.755 793.53 728.178 811.512C741.011 803.358 755.599 798.272 770.779 796.661C785.959 795.05 801.311 796.958 815.61 802.232C829.91 807.506 842.761 816.002 853.14 827.04C863.518 838.079 871.137 851.355 875.388 865.811C926.585 835.022 997.36 848.514 1041.56 888.484C1064.28 909.6 1081.42 935.866 1091.5 965Z" fill="url(#paint1_linear)"/>
<path d="M1534 161.597V193.4L0 271.387V210.088L1534 161.597Z" fill="url(#paint2_linear)"/>
<path d="M1534 220.461V262.865L497.509 280.441L1534 220.461Z" fill="url(#paint3_linear)"/>
<path d="M1534 47.5963V130.96L0 191.168V44.7305L1534 47.5963Z" fill="url(#paint4_linear)"/>
<path d="M1046.16 262.688H776.339C781.484 243.007 803.532 229.591 820.075 241.638C812.022 215.008 830.057 183.585 857.328 176.636C884.598 169.687 915.882 188.581 921.98 215.718C923.704 212.95 925.973 210.551 928.653 208.661C931.333 206.771 934.369 205.429 937.583 204.713C940.798 203.998 944.124 203.923 947.368 204.495C950.612 205.066 953.707 206.271 956.47 208.04C959.234 209.808 961.611 212.104 963.461 214.792C965.311 217.48 966.597 220.505 967.243 223.691C967.889 226.876 967.881 230.156 967.221 233.339C966.561 236.521 965.262 239.541 963.4 242.221C969.304 236.269 976.682 231.939 984.803 229.657C992.924 227.375 1001.51 227.221 1009.71 229.21C1026.05 233.395 1041.94 246.634 1046.16 262.688Z" fill="url(#paint5_linear)"/>
<path d="M1278.99 412.93H1475.29C1471.46 398.6 1455.51 388.861 1443.39 397.713C1449.26 378.336 1436.13 355.46 1416.27 350.413C1396.41 345.366 1373.72 359.112 1369.32 378.844C1368.13 376.699 1366.51 374.819 1364.55 373.322C1362.59 371.826 1360.33 370.744 1357.93 370.145C1355.53 369.546 1353.02 369.443 1350.58 369.843C1348.13 370.242 1345.79 371.135 1343.71 372.466C1341.63 373.796 1339.86 375.536 1338.49 377.576C1337.12 379.616 1336.2 381.912 1335.77 384.32C1335.35 386.728 1335.44 389.197 1336.02 391.571C1336.61 393.945 1337.69 396.174 1339.19 398.118C1334.89 393.792 1329.52 390.646 1323.61 388.992C1317.7 387.337 1311.46 387.231 1305.49 388.684C1293.63 391.6 1282.08 401.238 1278.99 412.93Z" fill="url(#paint6_linear)"/>
<path d="M1398.57 756.883H1215.91C1216.97 743.543 1221.06 729.112 1229.96 718.993C1238.86 708.874 1252.47 702.381 1265.98 703.776C1279.48 705.171 1292.17 715.189 1294.66 728.351C1296.22 725.305 1298.82 722.902 1302 721.571C1305.19 720.241 1308.75 720.069 1312.05 721.086C1315.35 722.104 1318.18 724.245 1320.02 727.128C1321.87 730.01 1322.62 733.446 1322.14 736.822C1322.58 725.054 1335.59 715.417 1347.17 718.308C1349.99 719.172 1352.59 720.611 1354.8 722.531C1357.02 724.451 1358.8 726.809 1360.03 729.453C1361.26 732.096 1361.91 734.965 1361.95 737.874C1361.98 740.782 1361.39 743.664 1360.21 746.333C1363.06 743.581 1366.57 741.59 1370.42 740.547C1374.26 739.504 1378.31 739.444 1382.18 740.373C1386.09 741.578 1389.62 743.716 1392.48 746.597C1395.34 749.478 1397.44 753.012 1398.57 756.883Z" fill="url(#paint7_linear)"/>
<path d="M837.621 458.58H984.856C984.007 447.827 980.689 436.186 973.536 428.02C970.018 423.861 965.554 420.58 960.507 418.443C955.46 416.306 949.972 415.373 944.491 415.719C933.582 416.81 923.369 424.926 921.336 435.527C920.097 433.048 918.001 431.087 915.425 429.998C912.849 428.909 909.963 428.762 907.287 429.585C904.612 430.409 902.322 432.147 900.832 434.487C899.342 436.828 898.749 439.616 899.16 442.349C899.091 439.958 898.479 437.613 897.368 435.486C896.258 433.36 894.677 431.506 892.743 430.062C890.808 428.618 888.57 427.621 886.192 427.143C883.814 426.666 881.359 426.721 879.005 427.305C876.652 427.888 874.462 428.985 872.596 430.514C870.73 432.043 869.237 433.965 868.225 436.14C867.214 438.314 866.711 440.684 866.752 443.076C866.794 445.467 867.38 447.819 868.467 449.957C866.169 447.74 863.336 446.135 860.236 445.292C857.135 444.449 853.868 444.396 850.741 445.139C847.599 446.139 844.757 447.889 842.468 450.235C840.179 452.58 838.513 455.447 837.621 458.58Z" fill="url(#paint8_linear)"/>
<path d="M1510.92 965H651.074C675.093 932.333 709.624 908.645 749.043 897.795C788.463 886.945 830.448 889.572 868.159 905.248C885.73 878.441 931.319 876.539 951.154 901.748C958.384 851.025 1005.7 808.773 1057.61 806.668C1109.53 804.563 1160.24 842.859 1171.61 892.897C1181.64 872.608 1213.83 868.119 1229.24 884.731C1251.44 840.83 1303.13 814.987 1352.73 817.802C1402.33 820.617 1448.64 849.554 1477.32 889.651C1493.37 912.386 1504.78 937.976 1510.92 965Z" fill="url(#paint9_linear)"/>
<path d="M665.841 815.671C751.049 844.304 807.134 898.68 833.89 965H0V-3H541.734C574.613 72.0702 563.396 165.502 510.579 229.134C572.066 229.642 634.48 246.253 683.747 282.597C733.015 318.94 767.772 376.029 769.984 436.617C772.557 511.206 726.866 581.001 667.076 626.829C607.287 672.657 534.916 698.932 463.833 724.37C497.098 741.159 515.621 782.194 505.948 817.776C505.999 817.878 625.527 802.128 665.841 815.671Z" fill="url(#paint10_linear)"/>
<path d="M734.532 965H0V-3H443.637C470.826 20.7412 490.899 51.3702 501.677 85.5626C510.471 114.839 512.259 145.727 506.903 175.8C501.546 205.872 489.19 234.312 470.805 258.883C528.407 259.137 586.988 273.466 633.888 306.411C680.789 339.356 714.62 392.311 717.218 449.019C720.511 521.578 673.045 589.091 612.432 630.456C551.819 671.82 479.217 691.907 408.159 711.055C421.118 717.496 432.165 727.135 440.224 739.033C448.284 750.931 453.082 764.683 454.152 778.951C455.221 793.219 452.526 807.517 446.329 820.454C440.131 833.39 430.642 844.525 418.785 852.775C506.854 842.077 595.908 862.678 669.958 910.878C693.538 926.39 715.209 944.553 734.532 965Z" fill="white"/>
<path d="M58.9922 965H376.155L961.136 712.805L467.306 952.649L744.798 848.134L520.098 965H619.893L991.083 719.196L962.551 654.727L58.9922 716.964V797.36L879.762 685.794L58.9922 856.478V965Z" fill="url(#paint11_linear)"/>
<path d="M971.093 662.715C971.093 662.715 900.986 659.495 869.265 668.65C837.544 677.806 711.996 773.647 711.996 773.647C711.996 773.647 900.318 768.575 921.208 757.669C942.098 746.764 988.613 702.305 988.613 702.305L971.093 662.715Z" fill="url(#paint12_linear)"/>
<path d="M975.749 671.82C975.749 671.82 938.856 670.121 922.16 674.94C905.463 679.758 839.344 730.228 839.344 730.228C839.344 730.228 938.496 727.565 949.482 721.808C960.467 716.051 984.985 692.667 984.985 692.667L975.749 671.82Z" fill="url(#paint13_linear)"/>
<path d="M1042.74 597.257L980.997 590.384L900.317 637.43C900.317 637.43 904.588 644.1 910.248 644.912C915.908 645.723 971.787 630.887 971.787 630.887L982.078 646.357C982.078 646.357 1045.91 628.68 1042.74 597.257Z" fill="url(#paint14_linear)"/>
<path d="M1088.25 700.301L1051.46 749.63L961.573 775.93C961.573 775.93 959.541 768.321 962.783 763.68C966.024 759.039 1015.06 728.732 1015.06 728.732L1010.53 710.826C1010.53 710.826 1067.13 676.69 1088.25 700.301Z" fill="url(#paint15_linear)"/>
<path d="M1294.07 483.08L1318.05 614.427C1314.06 616.963 1309.99 619.5 1305.83 622.036C1302.12 624.217 1298.37 626.398 1294.48 628.579C1290.16 631.115 1285.71 633.372 1281.13 635.731C1271.76 640.575 1262.01 645.216 1251.77 649.604C1118.66 706.87 1010.56 710.852 1010.56 710.852L982.001 646.256C982.001 646.256 1058.46 570.805 1191.6 513.564C1201.89 509.151 1211.9 505.271 1221.88 501.771C1226.72 500.072 1231.53 498.5 1236.29 497.003C1240.52 495.684 1244.73 494.45 1248.89 493.3C1263.77 489.139 1278.84 485.728 1294.07 483.08Z" fill="#FFF4C5"/>
<path d="M1450 483.409C1449.38 484.551 1410.79 553.23 1323.27 610.953L1299.7 482.065C1387.33 467.761 1450 483.409 1450 483.409Z" fill="#FFF4C5"/>
<path d="M1450 483.435C1450 483.435 1406.52 561.903 1305.8 622.01L1248.89 493.376C1362.07 461.472 1450 483.435 1450 483.435Z" fill="url(#paint16_linear)"/>
<path d="M1236.31 497.104L1294.48 628.503C1290.13 631.039 1285.68 633.347 1281.13 635.705L1221.96 501.872C1226.78 500.199 1231.56 498.609 1236.31 497.104Z" fill="url(#paint17_linear)"/>
<path d="M981.982 646.39L962.528 654.757L991.055 719.217L1010.51 710.851L981.982 646.39Z" fill="url(#paint18_linear)"/>
<path d="M929.415 701.189L931.704 706.261L933.994 711.334L1069.34 661.65C1070.72 659.388 1071.52 656.836 1071.69 654.205C1071.86 651.575 1071.39 648.942 1070.32 646.526C1069.25 644.11 1067.62 641.981 1065.54 640.315C1063.47 638.649 1061.03 637.495 1058.41 636.948L929.415 701.189Z" fill="url(#paint19_linear)"/>
<g style="mix-blend-mode:multiply">
<path d="M1450 483.46C1449.33 484.652 1405.7 562.385 1305.8 621.985C1302.12 624.217 1298.31 626.398 1294.48 628.528C1290.13 631.064 1285.68 633.372 1281.1 635.731C1271.77 640.55 1261.99 645.174 1251.75 649.604C1118.66 706.845 1010.53 710.801 1010.53 710.801L1002.63 693.048C1041.84 685.009 1147.71 669.513 1243.95 628.097C1318.97 595.787 1447.97 485.159 1450 483.46Z" fill="#F6D79F"/>
</g>
<g style="mix-blend-mode:screen" opacity="0.3">
<path d="M1449.98 483.409C1448.64 483.08 1361.17 461.725 1248.87 493.376C1244.72 494.543 1240.53 495.786 1236.31 497.105C1231.53 498.601 1226.74 500.173 1221.88 501.873C1211.92 505.347 1201.81 509.253 1191.57 513.666C1058.49 570.907 982.001 646.256 982.001 646.256L989.899 664.009C1022.52 641.184 1106.06 575.244 1202.3 533.777C1277.32 501.695 1447.33 483.714 1449.98 483.409Z" fill="#FDFCEA"/>
</g>
<path d="M1058.92 589.801C1058.92 589.801 1051.21 609.127 1051.21 611.359C1051.21 613.59 1053.29 618.967 1055.01 620.134C1056.74 621.3 1067.34 615.061 1068.24 613.464C1069.14 611.866 1072.17 589.598 1072.17 589.598L1058.92 589.801Z" fill="#532C00"/>
<path d="M1169.83 541.107L1185.68 535.553C1186.97 538.177 1188.71 540.562 1190.83 542.603C1195.34 544.746 1200.01 546.56 1204.8 548.031C1206.44 548.639 1206.21 550.795 1206.21 550.795L1169.06 553.052C1168.98 549.056 1169.24 545.061 1169.83 541.107Z" fill="#532C00"/>
<path d="M1075.39 430.201L1056.92 591.348C1056.92 591.348 1067.21 594.265 1073.72 591.348C1073.72 591.348 1110.53 476.131 1113.65 464.059C1113.65 464.059 1165.1 470.551 1173.62 468.649C1173.62 468.649 1169.14 538.901 1169.04 541.716C1169.04 541.716 1181.9 538.622 1187.05 537.886C1187.05 537.886 1198.47 449.273 1197.34 446.889C1196.2 444.505 1152.03 437.125 1152.03 437.125L1075.39 430.201Z" fill="url(#paint20_linear)"/>
<path d="M1023.94 426.599L1015.01 424.063C1013.84 423.715 1012.62 423.597 1011.41 423.714C1010.2 423.832 1009.03 424.183 1007.95 424.748C1006.88 425.313 1005.93 426.081 1005.16 427.008C1004.39 427.935 1003.81 429.003 1003.46 430.15L1001.79 435.603L1005.49 436.719L1007.16 431.241C1007.37 430.572 1007.7 429.95 1008.15 429.409C1008.6 428.868 1009.15 428.42 1009.77 428.09C1010.4 427.76 1011.08 427.555 1011.78 427.487C1012.49 427.418 1013.2 427.487 1013.88 427.69L1022.83 430.353C1023.51 430.556 1024.14 430.889 1024.69 431.333C1025.24 431.777 1025.69 432.323 1026.03 432.94C1026.36 433.557 1026.57 434.233 1026.64 434.929C1026.71 435.625 1026.64 436.328 1026.43 436.998L1024.76 442.45L1028.46 443.541L1030.14 438.088C1030.5 436.933 1030.62 435.718 1030.51 434.514C1030.39 433.311 1030.03 432.141 1029.46 431.074C1028.88 430.006 1028.1 429.062 1027.15 428.294C1026.2 427.526 1025.11 426.95 1023.94 426.599Z" fill="#361900"/>
<path d="M1000.67 431.837L999.736 434.872L1007.52 437.188L1008.45 434.153L1000.67 431.837Z" fill="#FFF4C5"/>
<path d="M1027.77 432.661C1027.41 432.989 1027.02 433.27 1026.59 433.498C1026.03 433.796 1025.42 433.994 1024.78 434.081C1023.33 436.296 1021.6 438.324 1019.64 440.117C1018.38 440.599 1013.46 436.896 1012.49 436.009C1010.05 433.706 1008 431.045 1006.39 428.121C1005.62 425.813 1014.78 412.321 1014.78 412.321L1030.06 419.092C1030.06 419.092 1029.08 431.367 1027.77 432.661Z" fill="#FFC5C5"/>
<path d="M1026.51 433.498C1025.95 433.796 1025.34 433.994 1024.71 434.081C1024.77 433.004 1024.71 431.924 1024.53 430.86C1024.13 430.085 1023.79 429.279 1023.52 428.451C1023.52 428.451 1025.61 425.255 1025.92 425.407C1026.23 425.56 1026.48 427.411 1026.48 427.411L1025.74 429.947C1026.12 431.1 1026.38 432.291 1026.51 433.498Z" fill="#FF8A8C"/>
<path d="M968.451 430.626L951.438 486.177C950.657 488.725 952.12 491.414 954.704 492.183L1035.96 516.365C1038.54 517.135 1041.27 515.693 1042.05 513.145L1059.06 457.595C1059.84 455.047 1058.38 452.358 1055.79 451.589L974.543 427.406C971.959 426.637 969.231 428.079 968.451 430.626Z" fill="#774206"/>
<path d="M1045.29 502.507L1041.94 513.133C1041.76 513.739 1041.46 514.302 1041.06 514.792C1040.65 515.282 1040.15 515.689 1039.59 515.988C1039.02 516.287 1038.41 516.474 1037.77 516.536C1037.13 516.599 1036.49 516.537 1035.87 516.354L954.602 492.159C953.365 491.79 952.327 490.953 951.715 489.831C951.103 488.709 950.966 487.395 951.334 486.174L954.602 475.547L1045.29 502.507Z" fill="#532C00"/>
<path d="M1011.23 488.609L990.84 482.539L988.134 491.377L1008.53 497.446L1011.23 488.609Z" fill="#FFF4C5"/>
<path d="M988.124 431.448L981.794 429.565L961.955 494.341L968.285 496.225L988.124 431.448Z" fill="#361900"/>
<path d="M1048.46 449.426L1042.13 447.542L1022.29 512.319L1028.62 514.203L1048.46 449.426Z" fill="#361900"/>
<path d="M1028.72 429.922C1028.1 429.08 1027.33 428.35 1026.46 427.766C1025.91 427.407 1025.32 427.101 1024.71 426.853C1024.14 427.639 1023.6 428.451 1023.6 428.451C1023.87 429.279 1024.21 430.085 1024.6 430.86C1024.63 430.977 1024.63 431.099 1024.6 431.215C1025.37 431.843 1025.95 432.668 1026.28 433.599C1026.65 434.667 1026.65 435.828 1026.28 436.896L1024.6 442.349L1028.31 443.439L1029.98 437.987C1030.42 436.638 1030.54 435.207 1030.32 433.808C1030.1 432.408 1029.55 431.078 1028.72 429.922Z" fill="#361900"/>
<path d="M1023.68 438.706L1022.75 441.741L1030.53 444.058L1031.46 441.023L1023.68 438.706Z" fill="#FFF4C5"/>
<path d="M1262.53 309.201L1268.47 323.631L1259.47 329.515L1251.7 321.349L1258.05 308.846L1262.53 309.201Z" fill="#FCB0B1"/>
<path d="M1241.02 192.918C1237.14 197.508 1229.91 199.233 1223.86 199.36C1217.8 199.229 1211.8 198.08 1206.13 195.961C1200.44 193.859 1194.57 192.239 1188.59 191.117C1177.04 189.418 1165.28 192.487 1154.65 197.28C1164.46 201.449 1173.92 206.358 1182.95 211.965C1173.91 218.683 1165.62 226.335 1158.23 234.79C1168.7 231.823 1179.28 235.5 1189.72 238.62C1200.17 241.739 1210.3 246.025 1220.95 248.105C1231.6 250.184 1243.39 249.804 1252.57 243.996L1241.02 192.918Z" fill="url(#paint21_linear)"/>
<path d="M1246.68 191.929L1299.7 482.116L1294.04 483.08L1241.02 192.918L1246.68 191.929Z" fill="white"/>
<path d="M1250.18 317.748L1256.28 305.777L1274.47 305.396C1274.63 305.755 1274.72 306.144 1274.72 306.538C1274.72 306.932 1274.64 307.322 1274.48 307.683C1274.32 308.044 1274.08 308.368 1273.79 308.634C1273.49 308.9 1273.15 309.101 1272.77 309.226C1269.81 310.234 1266.76 310.948 1263.66 311.356C1263.66 311.356 1258.51 324.392 1253.24 323.2C1252.61 323.166 1252 322.975 1251.46 322.644C1250.93 322.314 1250.49 321.854 1250.18 321.309C1249.87 320.764 1249.71 320.151 1249.71 319.528C1249.71 318.905 1249.87 318.293 1250.18 317.748Z" fill="#FFC5C5"/>
<path d="M1272.36 311.052C1272.36 311.052 1274.59 313.766 1274 315.719C1273.41 317.672 1263.04 319.041 1263.04 319.041L1261.94 316.657C1261.94 316.657 1269.4 309.835 1272.36 311.052Z" fill="#FFC5C5"/>
<path d="M1271.43 306.588C1271.43 306.588 1273.67 309.302 1273.08 311.255C1272.48 313.208 1262.12 314.552 1262.12 314.552L1261.04 312.193C1261.04 312.193 1268.47 305.371 1271.43 306.588Z" fill="#FFC5C5"/>
<path d="M1272.69 315.947C1272.69 315.947 1274.7 318.356 1274.18 320.106C1273.67 321.856 1264.41 323.048 1264.41 323.048L1263.45 320.943C1263.45 320.943 1270.07 314.856 1272.69 315.947Z" fill="#FFC5C5"/>
<path d="M1272.46 321.019C1272.46 321.019 1273.77 323.327 1273.1 324.722C1272.43 326.117 1264.48 325.863 1264.48 325.863L1263.97 323.961C1263.97 323.961 1270.4 319.751 1272.46 321.019Z" fill="#FFC5C5"/>
<path d="M1135.72 339.99C1135.72 339.99 1138.29 341.385 1142.61 343.49C1155.01 349.627 1180.95 361.674 1193.17 361.446C1209.56 361.141 1262.99 332.939 1262.99 332.939L1260.29 327.563L1250.85 308.719C1250.85 308.719 1202.64 337.53 1196 334.613C1189.36 331.697 1141.51 308.186 1141.51 308.186L1135.72 339.99Z" fill="white"/>
<path d="M1140.74 337.783L1142.61 343.49C1155.01 349.627 1180.95 361.674 1193.17 361.446C1209.56 361.141 1262.99 332.939 1262.99 332.939L1260.29 327.562C1252.08 332.026 1206.93 356.297 1194.09 356.12C1179.94 355.917 1140.74 337.783 1140.74 337.783Z" fill="#F0EAD2"/>
<path d="M1009.53 411.636L1028.46 421.147L1032.94 423.404L1059.36 370.145L1097.62 343.972L1097.77 338.214L1098.6 309.759C1098.6 309.759 1045.34 340.345 1037.91 354.953L1009.53 411.636Z" fill="white"/>
<path d="M1028.46 421.147L1032.94 423.404L1059.36 370.145L1097.62 343.971L1097.77 338.214C1092.76 341.537 1055.07 366.34 1054.27 368.648C1053.47 370.956 1035.95 406.183 1028.46 421.147Z" fill="#F0EAD2"/>
<path d="M1151.88 436.998L1122.99 436.135H1120.9L1115.91 435.983H1113.34L1072.82 434.563L1081.15 334.106C1081.15 334.106 1082.62 312.016 1109.45 305.701C1109.71 305.66 1109.95 305.601 1110.2 305.523C1110.92 305.371 1111.61 305.219 1112.36 305.118C1113.75 304.839 1115.16 304.661 1116.66 304.484L1125.56 304.788L1133.28 305.041C1135.4 305.393 1137.45 306.078 1139.35 307.07C1140.03 307.396 1140.69 307.76 1141.33 308.161C1142 308.567 1142.64 309.023 1143.34 309.505C1149.46 314.121 1155.99 323.276 1156.02 341.486C1156.15 375.369 1151.88 436.998 1151.88 436.998Z" fill="white"/>
<path d="M1115.58 355.967C1115.48 356.457 1115.25 356.909 1114.9 357.268C1114.55 357.627 1114.1 357.876 1113.61 357.985C1113.12 358.094 1112.6 358.057 1112.13 357.88C1111.66 357.703 1111.25 357.393 1110.95 356.989C1110.66 356.585 1110.49 356.104 1110.47 355.607C1110.45 355.11 1110.58 354.618 1110.85 354.193C1111.11 353.768 1111.49 353.428 1111.95 353.216C1112.41 353.004 1112.91 352.929 1113.41 353C1113.76 353.049 1114.09 353.166 1114.38 353.343C1114.68 353.52 1114.93 353.754 1115.13 354.031C1115.34 354.308 1115.48 354.622 1115.56 354.955C1115.63 355.288 1115.64 355.632 1115.58 355.967Z" fill="#F0EAD2"/>
<path d="M1114.31 376.992C1114.23 377.484 1114 377.939 1113.65 378.302C1113.3 378.664 1112.85 378.918 1112.36 379.03C1111.87 379.143 1111.35 379.11 1110.88 378.935C1110.4 378.76 1109.99 378.451 1109.7 378.047C1109.4 377.643 1109.23 377.162 1109.21 376.663C1109.19 376.165 1109.32 375.671 1109.58 375.245C1109.84 374.818 1110.23 374.477 1110.68 374.265C1111.14 374.052 1111.65 373.978 1112.15 374.05C1112.49 374.099 1112.82 374.215 1113.11 374.391C1113.41 374.566 1113.66 374.798 1113.86 375.072C1114.06 375.346 1114.21 375.657 1114.29 375.987C1114.36 376.317 1114.37 376.659 1114.31 376.992Z" fill="#F0EAD2"/>
<path d="M1113.11 400.376C1113.01 400.865 1112.78 401.317 1112.43 401.676C1112.08 402.035 1111.63 402.284 1111.14 402.393C1110.65 402.502 1110.13 402.465 1109.66 402.288C1109.19 402.111 1108.78 401.802 1108.49 401.397C1108.19 400.993 1108.02 400.513 1108 400.015C1107.99 399.518 1108.11 399.026 1108.38 398.601C1108.64 398.176 1109.02 397.836 1109.48 397.624C1109.94 397.412 1110.45 397.337 1110.94 397.408C1111.29 397.457 1111.62 397.574 1111.91 397.751C1112.21 397.928 1112.46 398.162 1112.67 398.439C1112.87 398.716 1113.01 399.03 1113.09 399.363C1113.16 399.696 1113.17 400.04 1113.11 400.376Z" fill="#F0EAD2"/>
<path d="M1130.39 343.54L1150.1 344.91C1150.1 344.91 1149.25 362.536 1148.79 363.398C1148.33 364.261 1140.17 367.507 1137.8 366.822C1134.84 365.419 1132.03 363.72 1129.42 361.75L1130.39 343.54Z" fill="#F0EAD2"/>
<path d="M1111.82 292.64L1116.81 309.556L1135.72 307.273L1132.45 296.748L1111.82 292.64Z" fill="#FCB0B1"/>
<path d="M1132.79 260.912L1141.05 297.002L1118.33 299.69L1110.04 292.209L1103.61 269.155L1132.79 260.912Z" fill="#FFC5C5"/>
<path d="M1105 287.745C1105 287.745 1103.02 280.796 1107.01 279.781C1111 278.767 1113.41 283.002 1113.41 283.002L1108.96 270.829C1108.96 270.829 1137.55 271.97 1136.75 257.945C1135.95 243.92 1126.33 244.782 1122.32 246.025C1121.37 246.373 1120.51 246.918 1119.79 247.621C1119.08 248.324 1118.52 249.171 1118.17 250.103C1117.81 251.036 1117.66 252.032 1117.73 253.026C1117.8 254.02 1118.08 254.988 1118.56 255.865C1118.56 255.865 1099.86 255.865 1098.18 260.938C1097.72 262.488 1097.59 264.117 1097.8 265.721C1098.01 267.324 1098.56 268.865 1099.42 270.245C1099.42 270.245 1095.56 270.854 1095.48 276.434C1095.41 282.013 1102.35 286.502 1105 287.745Z" fill="#532C00"/>
<path d="M1116.24 285.691C1116.24 285.691 1108.84 273.441 1103.69 280.796C1100.22 286.02 1109.97 292.209 1109.97 292.209L1116.24 285.691Z" fill="#FFC5C5"/>
<path d="M1142.64 281.633L1135.54 283.56L1134.41 270.981L1142.64 281.633Z" fill="#FFC5C5"/>
<path d="M1115.91 435.907L1113.23 435.806L1124.53 307.984L1126.1 307.451L1115.91 435.907Z" fill="#F0EAD2"/>
<path d="M1110.33 305.549L1118.41 319.168L1125.22 307.958L1131.17 320.005L1141.46 308.186L1139.5 307.096C1137.59 306.105 1135.53 305.42 1133.4 305.067L1125.69 304.813L1116.78 304.509C1115.32 304.686 1113.88 304.889 1112.54 305.118L1110.33 305.549Z" fill="#F0EAD2"/>
<path d="M1133.4 305.041L1125.69 304.788L1130.99 317.469L1139.5 307.045C1137.59 306.063 1135.53 305.386 1133.4 305.041Z" fill="white"/>
<path d="M1112.54 305.092L1118.33 316.885L1125.69 304.788L1116.78 304.484C1115.33 304.67 1113.91 304.872 1112.54 305.092Z" fill="white"/>
<path d="M1125.69 304.788L1121.9 311.001L1123.91 313.842C1120.5 322.471 1114.13 329.65 1105.9 334.131C1099.57 337.504 1092.45 339.203 1085.84 341.917C1079.22 344.631 1072.77 349.196 1070.4 355.866L1073.23 366.518L1086.09 362.587C1088.38 356.5 1094.04 352.315 1099.75 349.069C1105.46 345.823 1111.59 343.008 1116.06 338.24C1122.06 331.849 1124.53 322.769 1126.36 314.248L1128.26 311.433L1125.69 304.788Z" fill="url(#paint22_linear)"/>
<path d="M1534 692.642V965H1153.24C1162.54 947.943 1175.21 932.899 1190.51 920.759C1205.81 908.619 1223.43 899.63 1242.32 894.326C1261.21 889.021 1280.99 887.508 1300.49 889.876C1319.98 892.245 1338.8 898.447 1355.81 908.114C1362.86 885.086 1394.84 873.825 1414.99 887.191C1408.35 874.577 1405.33 860.42 1406.24 846.239C1407.15 832.059 1411.97 818.391 1420.17 806.706C1428.37 795.021 1439.64 785.759 1452.78 779.917C1465.92 774.074 1480.43 771.872 1494.74 773.546C1496.54 742.807 1511.57 713.946 1534 692.642Z" fill="url(#paint23_linear)"/>
<path d="M1045.57 278.26L1043.95 273.492L1042.33 278.26C1040.22 284.394 1035.85 289.525 1030.08 292.64C1035.85 295.736 1040.23 300.862 1042.33 306.994L1043.95 311.762L1045.57 306.994C1047.68 300.862 1052.05 295.736 1057.82 292.64C1052.06 289.525 1047.69 284.394 1045.57 278.26Z" fill="url(#paint24_linear)"/>
<path d="M1190.6 392.818L1189.52 389.622L1188.41 392.818C1186.99 396.964 1184.04 400.432 1180.15 402.531C1184.04 404.628 1186.98 408.085 1188.41 412.219L1189.52 415.44L1190.6 412.219C1192.03 408.085 1194.99 404.629 1198.88 402.531C1194.98 400.429 1192.03 396.963 1190.6 392.818Z" fill="url(#paint25_linear)"/>
<path d="M1199.96 282.926L1198.85 279.705L1197.77 282.926C1196.34 287.063 1193.4 290.525 1189.51 292.64C1193.4 294.737 1196.35 298.194 1197.77 302.328L1198.85 305.549L1199.96 302.328C1201.38 298.189 1204.33 294.729 1208.22 292.64C1204.33 290.533 1201.38 287.068 1199.96 282.926Z" fill="url(#paint26_linear)"/>
<path d="M970.063 528.223L968.957 525.028L967.851 528.223C966.443 532.366 963.504 535.835 959.618 537.937C963.497 540.035 966.436 543.492 967.851 547.625L968.957 550.846L970.063 547.625C971.489 543.49 974.436 540.034 978.322 537.937C974.428 535.838 971.479 532.369 970.063 528.223Z" fill="url(#paint27_linear)"/>
<path d="M1218.74 417.14L1218.02 415.06L1217.33 417.14C1216.41 419.812 1214.51 422.047 1212 423.404C1214.5 424.772 1216.4 427.004 1217.33 429.668L1218.02 431.748L1218.74 429.668C1219.67 427.004 1221.57 424.772 1224.07 423.404C1221.56 422.047 1219.66 419.812 1218.74 417.14Z" fill="url(#paint28_linear)"/>
<path d="M998.955 355.207L998.234 353.127L997.54 355.207C996.613 357.875 994.703 360.102 992.188 361.446C994.7 362.805 996.608 365.039 997.54 367.71L998.234 369.789L998.955 367.71C999.876 365.04 1001.78 362.806 1004.28 361.446C1001.77 360.101 999.87 357.873 998.955 355.207Z" fill="url(#paint29_linear)"/>
<path d="M1002.53 546.788L1001.81 544.708L1001.12 546.788C1000.2 549.468 998.288 551.706 995.765 553.052C998.276 554.412 1000.18 556.645 1001.12 559.317L1001.81 561.396L1002.53 559.317C1003.44 556.642 1005.34 554.405 1007.86 553.052C1005.33 551.711 1003.43 549.47 1002.53 546.788Z" fill="url(#paint30_linear)"/>
<path d="M1066.77 252.594L1065.82 249.855L1064.89 252.594C1063.67 256.137 1061.14 259.103 1057.82 260.912C1061.14 262.722 1063.67 265.688 1064.89 269.231L1065.82 271.995L1066.77 269.231C1067.98 265.678 1070.51 262.707 1073.85 260.912C1070.51 259.118 1067.98 256.147 1066.77 252.594Z" fill="url(#paint31_linear)"/>
<path d="M921.182 380.239C920.243 380.315 919.367 380.737 918.729 381.421C918.091 382.105 917.736 383 917.736 383.929C917.736 384.858 918.091 385.753 918.729 386.436C919.367 387.12 920.243 387.542 921.182 387.619C922.121 387.542 922.997 387.12 923.635 386.436C924.273 385.753 924.627 384.858 924.627 383.929C924.627 383 924.273 382.105 923.635 381.421C922.997 380.737 922.121 380.315 921.182 380.239Z" fill="white"/>
<path d="M1076.65 183.915C1075.71 183.991 1074.84 184.414 1074.2 185.097C1073.56 185.781 1073.21 186.676 1073.21 187.605C1073.21 188.534 1073.56 189.429 1074.2 190.112C1074.84 190.796 1075.71 191.218 1076.65 191.295C1077.59 191.218 1078.47 190.796 1079.1 190.112C1079.74 189.429 1080.1 188.534 1080.1 187.605C1080.1 186.676 1079.74 185.781 1079.1 185.097C1078.47 184.414 1077.59 183.991 1076.65 183.915Z" fill="white"/>
<path d="M1315.76 257.159C1314.82 257.236 1313.94 257.658 1313.3 258.341C1312.67 259.025 1312.31 259.92 1312.31 260.849C1312.31 261.778 1312.67 262.673 1313.3 263.357C1313.94 264.04 1314.82 264.462 1315.76 264.539C1316.7 264.462 1317.57 264.04 1318.21 263.357C1318.85 262.673 1319.2 261.778 1319.2 260.849C1319.2 259.92 1318.85 259.025 1318.21 258.341C1317.57 257.658 1316.7 257.236 1315.76 257.159Z" fill="white"/>
<path d="M1371.69 439.331C1370.75 439.408 1369.87 439.83 1369.24 440.513C1368.6 441.197 1368.24 442.092 1368.24 443.021C1368.24 443.95 1368.6 444.845 1369.24 445.529C1369.87 446.212 1370.75 446.634 1371.69 446.711C1372.63 446.634 1373.5 446.212 1374.14 445.529C1374.78 444.845 1375.13 443.95 1375.13 443.021C1375.13 442.092 1374.78 441.197 1374.14 440.513C1373.5 439.83 1372.63 439.408 1371.69 439.331Z" fill="white"/>
<path d="M869.985 572.251C868.989 572.251 868.034 572.641 867.329 573.335C866.625 574.03 866.229 574.972 866.229 575.954C866.229 576.936 866.625 577.878 867.329 578.572C868.034 579.266 868.989 579.657 869.985 579.657C870.981 579.657 871.937 579.266 872.641 578.572C873.346 577.878 873.741 576.936 873.741 575.954C873.741 574.972 873.346 574.03 872.641 573.335C871.937 572.641 870.981 572.251 869.985 572.251Z" fill="white"/>
<path d="M757.635 588.914C756.696 588.99 755.821 589.412 755.183 590.096C754.544 590.78 754.19 591.675 754.19 592.604C754.19 593.533 754.544 594.428 755.183 595.111C755.821 595.795 756.696 596.217 757.635 596.294C758.575 596.217 759.45 595.795 760.089 595.111C760.727 594.428 761.081 593.533 761.081 592.604C761.081 591.675 760.727 590.78 760.089 590.096C759.45 589.412 758.575 588.99 757.635 588.914Z" fill="white"/>
<path d="M1426.26 655.969C1425.32 656.046 1424.44 656.468 1423.8 657.152C1423.16 657.835 1422.81 658.73 1422.81 659.659C1422.81 660.588 1423.16 661.483 1423.8 662.167C1424.44 662.851 1425.32 663.273 1426.26 663.349C1427.19 663.273 1428.07 662.851 1428.71 662.167C1429.35 661.483 1429.7 660.588 1429.7 659.659C1429.7 658.73 1429.35 657.835 1428.71 657.152C1428.07 656.468 1427.19 656.046 1426.26 655.969Z" fill="white"/>
<path d="M1149.07 772.277C1148.08 772.277 1147.12 772.667 1146.42 773.362C1145.71 774.056 1145.32 774.998 1145.32 775.98C1145.32 776.962 1145.71 777.904 1146.42 778.598C1147.12 779.293 1148.08 779.683 1149.07 779.683C1150.07 779.683 1151.02 779.293 1151.73 778.598C1152.43 777.904 1152.83 776.962 1152.83 775.98C1152.83 774.998 1152.43 774.056 1151.73 773.362C1151.02 772.667 1150.07 772.277 1149.07 772.277Z" fill="white"/>
<path d="M813.798 349.526C812.858 349.602 811.983 350.025 811.345 350.708C810.706 351.392 810.352 352.287 810.352 353.216C810.352 354.145 810.706 355.04 811.345 355.723C811.983 356.407 812.858 356.829 813.798 356.906C814.737 356.829 815.612 356.407 816.251 355.723C816.889 355.04 817.243 354.145 817.243 353.216C817.243 352.287 816.889 351.392 816.251 350.708C815.612 350.025 814.737 349.602 813.798 349.526Z" fill="white"/>
<path d="M715.597 227.613C714.658 227.689 713.783 228.112 713.144 228.795C712.506 229.479 712.152 230.374 712.152 231.303C712.152 232.232 712.506 233.127 713.144 233.81C713.783 234.494 714.658 234.916 715.597 234.993C716.537 234.916 717.412 234.494 718.051 233.81C718.689 233.127 719.043 232.232 719.043 231.303C719.043 230.374 718.689 229.479 718.051 228.795C717.412 228.112 716.537 227.689 715.597 227.613Z" fill="white"/>
<path d="M1493.69 336.541C1492.75 336.617 1491.87 337.039 1491.23 337.723C1490.59 338.406 1490.24 339.302 1490.24 340.231C1490.24 341.16 1490.59 342.055 1491.23 342.738C1491.87 343.422 1492.75 343.844 1493.69 343.921C1494.62 343.844 1495.5 343.422 1496.14 342.738C1496.78 342.055 1497.13 341.16 1497.13 340.231C1497.13 339.302 1496.78 338.406 1496.14 337.723C1495.5 337.039 1494.62 336.617 1493.69 336.541Z" fill="white"/>
<path d="M1453.73 202.987C1452.79 203.063 1451.92 203.485 1451.28 204.169C1450.64 204.853 1450.29 205.748 1450.29 206.677C1450.29 207.606 1450.64 208.501 1451.28 209.184C1451.92 209.868 1452.79 210.29 1453.73 210.367C1454.67 210.29 1455.55 209.868 1456.18 209.184C1456.82 208.501 1457.18 207.606 1457.18 206.677C1457.18 205.748 1456.82 204.853 1456.18 204.169C1455.55 203.485 1454.67 203.063 1453.73 202.987Z" fill="white"/>
<path d="M1338.86 822.138C1337.92 822.215 1337.05 822.637 1336.41 823.321C1335.77 824.004 1335.42 824.899 1335.42 825.828C1335.42 826.758 1335.77 827.653 1336.41 828.336C1337.05 829.02 1337.92 829.442 1338.86 829.519C1339.8 829.442 1340.68 829.02 1341.31 828.336C1341.95 827.653 1342.31 826.758 1342.31 825.828C1342.31 824.899 1341.95 824.004 1341.31 823.321C1340.68 822.637 1339.8 822.215 1338.86 822.138Z" fill="white"/>
<path d="M610.888 763.046C609.892 763.046 608.937 763.436 608.232 764.13C607.528 764.825 607.132 765.767 607.132 766.749C607.132 767.731 607.528 768.673 608.232 769.367C608.937 770.061 609.892 770.451 610.888 770.451C611.885 770.451 612.84 770.061 613.544 769.367C614.249 768.673 614.645 767.731 614.645 766.749C614.645 765.767 614.249 764.825 613.544 764.13C612.84 763.436 611.885 763.046 610.888 763.046Z" fill="white"/>
<path d="M848.143 865.228C847.204 865.304 846.328 865.726 845.69 866.41C845.052 867.093 844.697 867.989 844.697 868.918C844.697 869.847 845.052 870.742 845.69 871.425C846.328 872.109 847.204 872.531 848.143 872.608C849.082 872.531 849.958 872.109 850.596 871.425C851.234 870.742 851.588 869.847 851.588 868.918C851.588 867.989 851.234 867.093 850.596 866.41C849.958 865.726 849.082 865.304 848.143 865.228Z" fill="white"/>
<defs>
<linearGradient id="paint0_linear" x1="68.7683" y1="6.53597" x2="1414.7" y2="947.695" gradientUnits="userSpaceOnUse">
<stop stop-color="#FF6B1F"/>
<stop offset="0.19" stop-color="#FF7121"/>
<stop offset="0.45" stop-color="#FF8328"/>
<stop offset="0.74" stop-color="#FF9F32"/>
<stop offset="1" stop-color="#FFBE3D"/>
</linearGradient>
<linearGradient id="paint1_linear" x1="741.196" y1="599.946" x2="682.884" y2="906.75" gradientUnits="userSpaceOnUse">
<stop stop-color="#FFE5D4"/>
<stop offset="1" stop-color="#FFC593" stop-opacity="0"/>
</linearGradient>
<linearGradient id="paint2_linear" x1="767" y1="-434.781" x2="767" y2="269.637" gradientUnits="userSpaceOnUse">
<stop stop-color="white"/>
<stop offset="1" stop-color="white" stop-opacity="0"/>
</linearGradient>
<linearGradient id="paint3_linear" x1="409725" y1="-2094.17" x2="409725" y2="7006.01" gradientUnits="userSpaceOnUse">
<stop stop-color="white"/>
<stop offset="1" stop-color="white" stop-opacity="0"/>
</linearGradient>
<linearGradient id="paint4_linear" x1="457331" y1="-43772.3" x2="457331" y2="10487.2" gradientUnits="userSpaceOnUse">
<stop stop-color="white"/>
<stop offset="1" stop-color="white" stop-opacity="0"/>
</linearGradient>
<linearGradient id="paint5_linear" x1="96348.4" y1="3863.28" x2="96348.4" y2="12783.8" gradientUnits="userSpaceOnUse">
<stop stop-color="#FFE5D4"/>
<stop offset="1" stop-color="#FFC593" stop-opacity="0"/>
</linearGradient>
<linearGradient id="paint6_linear" x1="-365803" y1="7878.78" x2="-365803" y2="12592.8" gradientUnits="userSpaceOnUse">
<stop stop-color="#FFE5D4"/>
<stop offset="1" stop-color="#FFC593" stop-opacity="0"/>
</linearGradient>
<linearGradient id="paint7_linear" x1="94031.9" y1="14638.1" x2="94031.9" y2="17949.9" gradientUnits="userSpaceOnUse">
<stop stop-color="#FFE5D4"/>
<stop offset="1" stop-color="#FFC593" stop-opacity="0"/>
</linearGradient>
<linearGradient id="paint8_linear" x1="-260165" y1="6906.92" x2="-260165" y2="9058.23" gradientUnits="userSpaceOnUse">
<stop stop-color="#FFE5D4"/>
<stop offset="1" stop-color="#FFC593" stop-opacity="0"/>
</linearGradient>
<linearGradient id="paint9_linear" x1="329500" y1="45234.1" x2="331352" y2="71890" gradientUnits="userSpaceOnUse">
<stop stop-color="#FFE5D4"/>
<stop offset="1" stop-color="#FFC593" stop-opacity="0"/>
</linearGradient>
<linearGradient id="paint10_linear" x1="348166" y1="184730" x2="-14426.3" y2="184730" gradientUnits="userSpaceOnUse">
<stop stop-color="#FFE5D4"/>
<stop offset="1" stop-color="#FFC593" stop-opacity="0"/>
</linearGradient>
<linearGradient id="paint11_linear" x1="443.071" y1="799.237" x2="1250.71" y2="464.333" gradientUnits="userSpaceOnUse">
<stop stop-color="#FFF197" stop-opacity="0"/>
<stop offset="1" stop-color="#FFA600"/>
</linearGradient>
<linearGradient id="paint12_linear" x1="724.356" y1="771.826" x2="986.526" y2="679.347" gradientUnits="userSpaceOnUse">
<stop stop-color="#FFF197"/>
<stop offset="1" stop-color="#FFA600"/>
</linearGradient>
<linearGradient id="paint13_linear" x1="34540.6" y1="13092.1" x2="40220.7" y2="9387.17" gradientUnits="userSpaceOnUse">
<stop stop-color="#FFF197"/>
<stop offset="1" stop-color="#FFA600"/>
</linearGradient>
<linearGradient id="paint14_linear" x1="905.774" y1="649.905" x2="1040.28" y2="590.582" gradientUnits="userSpaceOnUse">
<stop stop-color="#DB4B00"/>
<stop offset="1" stop-color="#A23B01"/>
</linearGradient>
<linearGradient id="paint15_linear" x1="-8244.76" y1="-9461.74" x2="-976.697" y2="-9461.74" gradientUnits="userSpaceOnUse">
<stop stop-color="#DB4B00"/>
<stop offset="1" stop-color="#A23B01"/>
</linearGradient>
<linearGradient id="paint16_linear" x1="16249.5" y1="-20651" x2="30974.7" y2="-20651" gradientUnits="userSpaceOnUse">
<stop stop-color="#DB4B00"/>
<stop offset="1" stop-color="#A23B01"/>
</linearGradient>
<linearGradient id="paint17_linear" x1="1212.38" y1="558.968" x2="1303.42" y2="574.024" gradientUnits="userSpaceOnUse">
<stop stop-color="#547A95"/>
<stop offset="1" stop-color="#29506E"/>
</linearGradient>
<linearGradient id="paint18_linear" x1="-2558.21" y1="-7788.86" x2="-2770.45" y2="-7694.93" gradientUnits="userSpaceOnUse">
<stop stop-color="#547A95"/>
<stop offset="1" stop-color="#29506E"/>
</linearGradient>
<linearGradient id="paint19_linear" x1="-9315.6" y1="-10130.3" x2="-949.098" y2="-10130.3" gradientUnits="userSpaceOnUse">
<stop stop-color="#DB4B00"/>
<stop offset="1" stop-color="#A23B01"/>
</linearGradient>
<linearGradient id="paint20_linear" x1="89648.7" y1="51435.9" x2="88323.2" y2="42906.6" gradientUnits="userSpaceOnUse">
<stop stop-color="#547A95"/>
<stop offset="1" stop-color="#29506E"/>
</linearGradient>
<linearGradient id="paint21_linear" x1="58886" y1="19898.9" x2="62798" y2="20545.9" gradientUnits="userSpaceOnUse">
<stop stop-color="#DB4B00"/>
<stop offset="1" stop-color="#A23B01"/>
</linearGradient>
<linearGradient id="paint22_linear" x1="1135.44" y1="295.11" x2="1070.82" y2="375.618" gradientUnits="userSpaceOnUse">
<stop stop-color="#A23B01"/>
<stop offset="1" stop-color="#DB4B00"/>
</linearGradient>
<linearGradient id="paint23_linear" x1="197405" y1="76549.7" x2="201223" y2="115105" gradientUnits="userSpaceOnUse">
<stop stop-color="#FFE5D4"/>
<stop offset="1" stop-color="#FFC593" stop-opacity="0"/>
</linearGradient>
<linearGradient id="paint24_linear" x1="12360.1" y1="4306.45" x2="12113" y2="5035.1" gradientUnits="userSpaceOnUse">
<stop stop-color="#FFF197"/>
<stop offset="1" stop-color="#FFA600"/>
</linearGradient>
<linearGradient id="paint25_linear" x1="9874.51" y1="4323.01" x2="9762.12" y2="4654.8" gradientUnits="userSpaceOnUse">
<stop stop-color="#FFF197"/>
<stop offset="1" stop-color="#FFA600"/>
</linearGradient>
<linearGradient id="paint26_linear" x1="9940.06" y1="3096.9" x2="9827.33" y2="3429.12" gradientUnits="userSpaceOnUse">
<stop stop-color="#FFF197"/>
<stop offset="1" stop-color="#FFA600"/>
</linearGradient>
<linearGradient id="paint27_linear" x1="8038.73" y1="5836.85" x2="7926.21" y2="6168.54" gradientUnits="userSpaceOnUse">
<stop stop-color="#FFF197"/>
<stop offset="1" stop-color="#FFA600"/>
</linearGradient>
<linearGradient id="paint28_linear" x1="6938.97" y1="3139.53" x2="6892.01" y2="3277.87" gradientUnits="userSpaceOnUse">
<stop stop-color="#FFF197"/>
<stop offset="1" stop-color="#FFA600"/>
</linearGradient>
<linearGradient id="paint29_linear" x1="5698.39" y1="2666.39" x2="5651.63" y2="2804.8" gradientUnits="userSpaceOnUse">
<stop stop-color="#FFF197"/>
<stop offset="1" stop-color="#FFA600"/>
</linearGradient>
<linearGradient id="paint30_linear" x1="5718.82" y1="4122.27" x2="5671.94" y2="4260.67" gradientUnits="userSpaceOnUse">
<stop stop-color="#FFF197"/>
<stop offset="1" stop-color="#FFA600"/>
</linearGradient>
<linearGradient id="paint31_linear" x1="7723.31" y1="2410.56" x2="7640.71" y2="2654.39" gradientUnits="userSpaceOnUse">
<stop stop-color="#FFF197"/>
<stop offset="1" stop-color="#FFA600"/>
</linearGradient>
</defs>
</svg>
