<svg width="95" height="81" viewBox="0 0 95 81" fill="none" xmlns="http://www.w3.org/2000/svg">
<path opacity="0.2" d="M47.7005 80.8947C73.6319 80.8947 94.6534 62.8444 94.6534 40.5784C94.6534 18.3124 73.6319 0.262207 47.7005 0.262207C21.7691 0.262207 0.747559 18.3124 0.747559 40.5784C0.747559 62.8444 21.7691 80.8947 47.7005 80.8947Z" fill="white"/>
<path fill-rule="evenodd" clip-rule="evenodd" d="M60.5404 36.3427C60.3939 36.2192 60.1968 36.1499 59.9914 36.1499C59.786 36.1499 59.5889 36.2192 59.4424 36.3427C59.3703 36.4044 59.3131 36.4777 59.2741 36.5584C59.2351 36.6391 59.215 36.7255 59.215 36.8129C59.215 36.9002 59.2351 36.9868 59.2741 37.0675C59.3131 37.1482 59.3703 37.2215 59.4424 37.2831C59.4518 37.2957 59.4638 37.3065 59.4779 37.3152C59.6212 37.4323 59.8109 37.4984 60.0087 37.5002C60.1157 37.5002 60.2215 37.4809 60.3193 37.4435C60.417 37.4061 60.5045 37.3515 60.576 37.2831C60.6457 37.2194 60.7 37.1445 60.736 37.0628C60.7719 36.981 60.7886 36.8939 60.7853 36.8066C60.782 36.7193 60.7587 36.6334 60.7167 36.5538C60.6747 36.4742 60.6148 36.4024 60.5404 36.3427ZM58.963 35.2496C58.5292 34.9938 58.076 34.7628 57.6065 34.5584C55.1755 33.4595 52.3376 33.2284 49.7093 33.9154C49.6122 33.9413 49.522 33.9835 49.4439 34.0394C49.3657 34.0953 49.3011 34.1639 49.2538 34.2412C49.2065 34.3185 49.1775 34.4031 49.1682 34.49C49.159 34.577 49.1698 34.6647 49.2001 34.7481C49.2303 34.8315 49.2794 34.9089 49.3445 34.976C49.4096 35.0431 49.4894 35.0985 49.5795 35.1392C49.6696 35.1798 49.7681 35.2047 49.8694 35.2126C49.9707 35.2206 50.0728 35.2113 50.1699 35.1854C52.4154 34.6049 54.8368 34.807 56.9101 35.748C57.3189 35.9268 57.7139 36.1282 58.0924 36.3508C58.2205 36.4261 58.3725 36.4654 58.5277 36.4633C58.6545 36.4647 58.7796 36.439 58.8919 36.3884C59.0042 36.3379 59.1 36.2642 59.1708 36.174C59.228 36.1016 59.268 36.0202 59.2886 35.9346C59.3091 35.8489 59.3097 35.7606 59.2904 35.6748C59.2711 35.5889 59.2322 35.5071 59.176 35.4342C59.1199 35.3612 59.0475 35.2985 58.963 35.2496ZM66.0272 43.8819C65.6599 43.2989 65.3728 42.6812 65.1715 42.0413C65.6128 41.0545 65.7583 39.9884 65.5947 38.9408C65.4312 37.8931 64.9638 36.8975 64.2354 36.0453C62.9315 34.4977 61.2318 33.2271 59.267 32.3312C57.3021 31.4353 55.1242 30.938 52.9006 30.8773C50.6731 30.8751 48.4777 31.3326 46.4993 32.2114C46.2972 31.2763 45.8261 30.3993 45.1287 29.6603C44.4314 28.9212 43.53 28.3436 42.5065 27.9799C41.4829 27.6161 40.3697 27.4777 39.268 27.5773C38.1664 27.6769 37.1111 28.0114 36.1983 28.5503C35.2855 29.0892 34.5441 29.8154 34.0414 30.663C33.5387 31.5105 33.2907 32.4525 33.32 33.4033C33.3493 34.3541 33.6549 35.2836 34.209 36.1071C34.7631 36.9307 35.5483 37.6222 36.4929 38.119C36.7135 38.2065 36.9008 38.3459 37.0332 38.5208C37.1657 38.6956 37.238 38.8991 37.2418 39.1077V43.0139C37.2433 43.3715 37.4094 43.714 37.7038 43.967C37.9982 44.2199 38.3971 44.3627 38.8136 44.3641H39.0785C39.5015 47.2825 41.1691 49.9628 43.7592 51.8872C43.8165 52.3271 43.7434 52.7723 43.5467 53.1814C43.3071 53.8967 42.9382 54.7004 42.6106 55.3996C42.3934 55.8738 42.2052 56.2758 42.091 56.5893C42.0541 56.6891 42.0451 56.7949 42.0647 56.8982C42.0844 57.0016 42.1323 57.0995 42.2043 57.184C42.277 57.2682 42.3716 57.3367 42.4804 57.3841C42.5893 57.4315 42.7095 57.4566 42.8315 57.4573H53.9154C54.1874 57.4487 54.4491 57.3651 54.6615 57.2189C54.874 57.0727 55.0259 56.8716 55.0949 56.6455C55.2329 56.3185 55.3403 55.9825 55.416 55.6408C55.4861 55.1783 55.6641 54.7327 55.9393 54.3307H55.9824C56.0221 54.3373 56.0627 54.34 56.1031 54.3387C57.264 54.3387 58.2122 54.3869 59.0491 54.4271C61.5037 54.5477 62.9809 54.612 64.285 53.0045C64.9459 52.1846 64.871 50.9951 64.7914 49.7332C64.7307 49.1075 64.7279 48.4786 64.783 47.8525C65.0003 47.6918 65.2302 47.5441 65.471 47.4104C66.2031 46.9764 66.894 46.5665 66.894 45.9476C66.7591 45.2183 66.4651 44.5174 66.0272 43.8819ZM37.3055 36.9777C36.3577 36.4804 35.6252 35.7307 35.2195 34.8429C34.8137 33.9552 34.7569 32.9779 35.0578 32.0598C35.3587 31.1418 36.0007 30.3333 36.8862 29.7575C37.7716 29.1817 38.852 28.87 39.9627 28.87C41.0735 28.87 42.1538 29.1817 43.0393 29.7575C43.9247 30.3333 44.5667 31.1418 44.8676 32.0598C45.1685 32.9779 45.1117 33.9552 44.706 34.8429C44.3002 35.7307 43.5677 36.4804 42.6199 36.9777C41.9653 37.283 41.4765 37.7968 41.2588 38.4084H38.6666C38.4502 37.7971 37.9627 37.2833 37.3093 36.9777H37.3055ZM41.1287 39.7426V40.7152H38.7968V39.7426H41.1287ZM38.8164 43.03C38.8114 43.0298 38.8067 43.028 38.8031 43.0251C38.7994 43.0221 38.7972 43.0182 38.7968 43.0139V42.0493H41.1287V43.0139C41.1282 43.0182 41.126 43.0221 41.1224 43.0251C41.1188 43.028 41.114 43.0298 41.109 43.03H38.8164ZM64.5976 46.3093C64.2897 46.4316 64.0133 46.6055 63.7847 46.8208C63.5561 47.0361 63.3799 47.2885 63.2664 47.5631C63.1775 48.3083 63.1706 49.0592 63.2459 49.8055C63.3049 50.7379 63.3722 51.8069 63.0146 52.249C62.2423 53.2054 61.5739 53.2134 59.1409 53.0929C58.3377 53.0527 57.3417 53.0125 56.1612 53.0045C55.7997 52.9698 55.4348 53.0374 55.122 53.197C54.8093 53.3565 54.5658 53.5994 54.4284 53.8887C54.1839 54.3557 54.0081 54.8471 53.9051 55.3515C53.8445 55.6121 53.7673 55.8697 53.6738 56.123H43.9558C43.9895 56.0507 44.0251 55.9704 44.0607 55.898C45.184 53.4707 45.888 51.7024 44.8096 50.8986C42.5444 49.2265 41.0653 46.9039 40.6484 44.3641H41.1109C41.5275 44.3629 41.9265 44.2202 42.221 43.9673C42.5155 43.7143 42.6815 43.3715 42.6827 43.0139V39.1077C42.6865 38.8991 42.7588 38.6956 42.8913 38.5208C43.0238 38.3459 43.211 38.2065 43.4316 38.119C44.3285 37.6499 45.0825 37.0044 45.6315 36.2358C46.1806 35.4671 46.5088 34.5974 46.5892 33.6983C48.4989 32.7236 50.6799 32.2099 52.9016 32.2114C54.8684 32.276 56.7929 32.7208 58.5318 33.5126C60.2706 34.3045 61.779 35.423 62.9444 36.7848C63.5336 37.4624 63.9134 38.2571 64.0483 39.0947C64.1832 39.9324 64.0688 40.7857 63.7158 41.5751C63.4115 42.2101 63.8628 43.0781 64.6248 44.4525C64.8896 44.9037 65.1229 45.3681 65.3232 45.8431C65.0948 46.0134 64.8523 46.1692 64.5976 46.3093ZM43.7686 32.2998C43.6511 31.9333 43.4431 31.5929 43.1586 31.3016C42.8742 31.0103 42.5199 30.7751 42.1201 30.612C42.0297 30.5719 41.931 30.5474 41.8297 30.5401C41.7283 30.5327 41.6262 30.5426 41.5293 30.5691C41.4324 30.5956 41.3425 30.6382 41.2648 30.6945C41.187 30.7508 41.123 30.8197 41.0763 30.8973C41.0296 30.9749 41.0011 31.0597 40.9925 31.1467C40.9839 31.2337 40.9954 31.3213 41.0263 31.4045C41.0571 31.4878 41.1068 31.5649 41.1724 31.6317C41.238 31.6984 41.3182 31.7534 41.4086 31.7935C41.6155 31.8733 41.7998 31.9909 41.9485 32.138C42.0973 32.2852 42.2069 32.4583 42.2698 32.6455C42.3892 33.1138 42.3126 33.6032 42.0536 34.0279C41.9989 34.1014 41.9617 34.1835 41.944 34.2694C41.9264 34.3553 41.9287 34.4434 41.9508 34.5285C41.9729 34.6136 42.0143 34.6942 42.0727 34.7655C42.1312 34.8369 42.2055 34.8976 42.2914 34.9442C42.4154 35.0131 42.5602 35.0495 42.7079 35.0487C42.8384 35.0498 42.967 35.0224 43.0817 34.9689C43.1963 34.9155 43.2933 34.8378 43.3632 34.7433C43.8559 34.0028 44.0008 33.1289 43.7686 32.2998ZM39.9604 23.2979C39.8583 23.2977 39.7572 23.3149 39.6629 23.3484C39.5686 23.3819 39.4829 23.431 39.4107 23.493C39.3385 23.555 39.2813 23.6286 39.2423 23.7095C39.2033 23.7905 39.1832 23.8773 39.1834 23.9649V25.8618C39.1797 25.9513 39.1972 26.0405 39.2346 26.1241C39.272 26.2077 39.3286 26.284 39.4011 26.3484C39.4735 26.4128 39.5603 26.464 39.6564 26.499C39.7524 26.534 39.8556 26.5521 39.9599 26.5521C40.0642 26.5521 40.1675 26.534 40.2635 26.499C40.3595 26.464 40.4463 26.4128 40.5188 26.3484C40.5912 26.284 40.6479 26.2077 40.6853 26.1241C40.7227 26.0405 40.74 25.9513 40.7364 25.8618V23.9649C40.7367 23.8775 40.7169 23.791 40.6781 23.7101C40.6394 23.6293 40.5825 23.5558 40.5107 23.4939C40.4389 23.4319 40.3536 23.3828 40.2597 23.3492C40.1657 23.3155 40.065 23.2981 39.9632 23.2979H39.9604ZM31.3479 32.6053H29.1349C28.9288 32.6053 28.7312 32.6756 28.5855 32.8007C28.4398 32.9258 28.3579 33.0955 28.3579 33.2724C28.3579 33.4494 28.4398 33.6191 28.5855 33.7442C28.7312 33.8693 28.9288 33.9395 29.1349 33.9395H31.3479C31.4499 33.9395 31.551 33.9222 31.6452 33.8886C31.7395 33.855 31.8251 33.8059 31.8972 33.7439C31.9693 33.6819 32.0265 33.6083 32.0655 33.5273C32.1045 33.4464 32.1245 33.3596 32.1245 33.272C32.1244 33.1844 32.1043 33.0977 32.0651 33.0167C32.026 32.9358 31.9687 32.8623 31.8965 32.8004C31.8243 32.7385 31.7387 32.6894 31.6444 32.6559C31.5501 32.6224 31.449 32.6052 31.347 32.6053H31.3479ZM36.3282 26.5209L35.2216 24.8812C35.1712 24.8054 35.104 24.7388 35.0236 24.6853C34.9432 24.6318 34.8513 24.5924 34.7532 24.5694C34.6551 24.5464 34.5527 24.5402 34.4518 24.5512C34.3509 24.5621 34.2536 24.59 34.1652 24.6333C34.0769 24.6766 33.9993 24.7343 33.937 24.8033C33.8747 24.8723 33.8288 24.9512 33.802 25.0355C33.7752 25.1197 33.768 25.2077 33.7808 25.2943C33.7935 25.3809 33.826 25.4645 33.8764 25.5403L34.9829 27.188C35.0503 27.2903 35.1481 27.3755 35.2664 27.4348C35.3846 27.4941 35.5191 27.5255 35.656 27.5256C35.7917 27.5239 35.9248 27.4936 36.0436 27.4372C36.2221 27.3475 36.3522 27.2009 36.4054 27.0292C36.4585 26.8576 36.4304 26.6748 36.3272 26.5209H36.3282ZM32.8898 28.9884L30.9735 28.04C30.8849 27.9939 30.7864 27.9634 30.6839 27.9504C30.5813 27.9374 30.4768 27.9422 30.3765 27.9644C30.2761 27.9865 30.1819 28.0257 30.0994 28.0795C30.0169 28.1334 29.9478 28.2008 29.896 28.2779C29.8443 28.355 29.8111 28.4402 29.7983 28.5285C29.7855 28.6168 29.7934 28.7065 29.8214 28.7921C29.8495 28.8778 29.8972 28.9577 29.9618 29.0273C30.0263 29.0969 30.1064 29.1547 30.1974 29.1974L32.1137 30.1458C32.2324 30.2022 32.3655 30.2326 32.5012 30.2342C32.6725 30.2344 32.8392 30.186 32.9751 30.0965C33.1111 30.007 33.2087 29.8814 33.2529 29.7392C33.2971 29.5971 33.2854 29.4465 33.2196 29.3107C33.1537 29.1749 33.0374 29.0616 32.8888 28.9884H32.8898ZM50.0155 28.2811C49.9111 28.1292 49.7413 28.0187 49.5428 27.9736C49.3442 27.9284 49.133 27.9523 48.9548 28.04L47.0376 28.9884C46.8903 29.0624 46.7753 29.176 46.7105 29.3116C46.6457 29.4472 46.6346 29.5973 46.6788 29.7389C46.7231 29.8804 46.8203 30.0056 46.9555 30.0951C47.0906 30.1846 47.2563 30.2335 47.427 30.2342C47.5627 30.2325 47.6958 30.2021 47.8146 30.1458L49.7309 29.1974C49.9094 29.1077 50.0395 28.9611 50.0926 28.7894C50.1457 28.6177 50.1177 28.435 50.0145 28.2811H50.0155ZM33.1743 36.6401C33.1239 36.5637 33.0565 36.4967 32.9759 36.4428C32.8952 36.3889 32.803 36.3493 32.7044 36.3261C32.6058 36.303 32.5028 36.2968 32.4015 36.3079C32.3001 36.319 32.2023 36.3473 32.1137 36.391L30.1974 37.3394C30.0487 37.4126 29.9324 37.526 29.8666 37.6619C29.8007 37.7977 29.789 37.9485 29.8334 38.0906C29.8777 38.2328 29.9756 38.3584 30.1117 38.4479C30.2478 38.5373 30.4145 38.5856 30.5859 38.5852C30.7222 38.5874 30.8564 38.5568 30.9735 38.4968L32.8907 37.5483C33.0683 37.46 33.1977 37.3147 33.2507 37.1444C33.3037 36.9741 33.2759 36.7928 33.1734 36.6401H33.1743ZM35.8844 39.3407C35.7063 39.2528 35.495 39.2289 35.2964 39.2741C35.0978 39.3192 34.9279 39.4298 34.8238 39.5819L33.8764 40.9965C33.7737 41.1489 33.7456 41.3301 33.7982 41.5004C33.8509 41.6706 33.98 41.8161 34.1573 41.9047C34.2743 41.9647 34.4086 41.9953 34.5448 41.9931C34.6807 41.993 34.8141 41.9626 34.9321 41.9048C35.0501 41.847 35.1486 41.7639 35.2179 41.6635L36.1643 40.2489C36.2155 40.1735 36.2487 40.0902 36.2623 40.0037C36.2758 39.9171 36.2693 39.8292 36.2433 39.7448C36.2172 39.6605 36.172 39.5813 36.1102 39.512C36.0485 39.4427 35.9715 39.3844 35.8835 39.3407H35.8844ZM45.7672 24.6321C45.6786 24.5884 45.5808 24.5601 45.4794 24.549C45.3781 24.5379 45.2751 24.5441 45.1766 24.5673C45.078 24.5904 44.9857 24.63 44.905 24.6839C44.8244 24.7378 44.757 24.8049 44.7066 24.8812L43.6001 26.5209C43.4964 26.6745 43.4678 26.8571 43.5204 27.0287C43.573 27.2004 43.7026 27.3473 43.8809 27.4372C43.9997 27.4935 44.1328 27.5238 44.2685 27.5256C44.4055 27.5256 44.54 27.4944 44.6583 27.435C44.7765 27.3757 44.8743 27.2904 44.9416 27.188L46.0481 25.5403C46.1507 25.3878 46.1787 25.2064 46.1259 25.0361C46.0731 24.8659 45.9438 24.7206 45.7663 24.6321H45.7672Z" fill="white"/>
</svg>
