<svg width="50" height="43" viewBox="0 0 50 43" fill="none" xmlns="http://www.w3.org/2000/svg">
<path fill-rule="evenodd" clip-rule="evenodd" d="M43.5786 0.279054H6.28287C4.63453 0.279693 3.05388 0.842267 1.88832 1.84299C0.722763 2.84372 0.0676388 4.20083 0.0668945 5.61607V37.6374C0.0691236 39.0522 0.724741 40.4086 1.88998 41.4091C3.05521 42.4095 4.63498 42.9725 6.28287 42.9744H43.5786C45.227 42.9737 46.8076 42.4112 47.9732 41.4104C49.1387 40.4097 49.7939 39.0526 49.7946 37.6374V5.61607C49.7951 4.9151 49.6346 4.22083 49.3224 3.57314C49.0102 2.92544 48.5524 2.33689 47.9751 1.84123C47.3978 1.34556 46.7123 0.952516 45.958 0.684461C45.2036 0.416406 44.3951 0.278631 43.5786 0.279054ZM6.28287 3.83176H43.5786C44.1292 3.83346 44.6567 4.02183 45.046 4.35609C45.4354 4.69034 45.655 5.14335 45.657 5.61607V12.7291H4.21399V5.61607C4.21373 5.14416 4.43135 4.69131 4.81913 4.35687C5.2069 4.02243 5.73324 3.83368 6.28287 3.83176ZM31.1468 16.2899V39.4136H18.7148V16.2899H31.1468ZM4.21399 37.6374V16.2899H14.5677V39.4136H6.28287C5.73425 39.4134 5.20815 39.2263 4.82021 38.8932C4.43228 38.5601 4.21423 38.1084 4.21399 37.6374ZM43.5786 39.4136H35.2938V16.2899H45.657V37.6374C45.6547 38.1093 45.4347 38.5613 45.0451 38.8942C44.6556 39.2271 44.1283 39.4138 43.5786 39.4136Z" fill="#CB4700"/>
</svg>
