<svg width="229" height="130" viewBox="0 0 229 130" fill="none" xmlns="http://www.w3.org/2000/svg">
<g clip-path="url(#clip0)">
<path d="M-6.22245e-05 49.1868H10.9384V61.7901C10.9384 63.0406 11.6976 63.6659 13.2159 63.6659C14.6788 63.6659 15.4112 63.0406 15.4129 61.7901V55.2767C15.4129 53.2866 14.0874 50.9483 11.4365 48.2619C6.3109 43.2874 3.12386 39.9437 1.87533 38.2307C0.654157 36.609 -0.00440407 34.6319 -6.22245e-05 32.6007V26.4328C-6.22245e-05 19.3089 4.64735 15.7469 13.9422 15.7469C22.2669 15.7469 26.4283 18.9902 26.4266 25.4768V34.9753H15.4881V24.8636C15.4881 23.7637 14.8777 23.2147 13.6568 23.2164C12.2285 23.2164 11.5134 24.2764 11.5117 26.3965L11.7425 29.9584C11.7425 32.0005 13.0965 34.3752 15.8046 37.0824C20.8402 41.9096 24.0394 45.2802 25.402 47.1941C26.7623 49.0902 27.4804 51.3728 27.4512 53.7075V60.7223C27.4512 68.0246 22.7917 71.6758 13.4727 71.6758C4.48047 71.6758 -0.015625 68.3563 -0.015625 61.7173L-6.22245e-05 49.1868Z" fill="#FF7222"/>
<path d="M56.5055 23.4216H49.7743V71.1743H37.7282V23.4216H30.9971V16.2457H56.5055V23.4216Z" fill="#FF7222"/>
<path d="M136.354 71.2496H124.307C123.005 69.6908 122.355 65.2741 122.357 57.9994V57.9241L122.432 54.6297C122.51 50.0571 122.548 47.7188 122.546 47.6149C122.546 45.7495 121.297 44.8168 118.798 44.8168V71.1743H106.752V16.2457H121.628C125.019 16.2457 127.971 17.0252 130.484 18.584C132.996 20.1428 134.252 22.6076 134.25 25.9781V32.5643C134.25 36.8303 131.764 39.7159 126.792 41.221C131.788 42.3971 134.287 45.4239 134.289 50.3013L134.097 56.3133C134.097 65.0982 134.849 70.077 136.354 71.2496ZM122.51 35.2351V26.173C122.51 24.2539 121.273 23.2934 118.798 23.2917V38.1553C121.273 38.1553 122.51 37.1819 122.51 35.2351Z" fill="#FF7222"/>
<path d="M163.216 23.4216H156.498V71.1743H144.449V23.4216H137.721V16.2457H163.216V23.4216Z" fill="#FF7222"/>
<path d="M168.259 16.2457H180.305V62.3642C180.305 63.4641 180.98 64.0131 182.331 64.0114C183.681 64.0096 184.344 63.4606 184.32 62.3642V16.2457H196.366V61.7121C196.366 64.88 195.054 67.3317 192.429 69.0672C189.804 70.8027 186.438 71.6688 182.331 71.6653C178.526 71.6653 175.231 70.8859 172.445 69.327C169.659 67.7682 168.264 65.2567 168.259 61.7926V16.2457Z" fill="#FF7222"/>
<path d="M213.245 50.9612V71.1743H201.505V16.2457H214.163C219.178 16.2457 222.907 16.884 225.351 18.1605C227.794 19.437 229.011 22.042 229.003 25.9755V41.2184C229.003 44.8194 228.008 47.3672 226.02 48.862C224.031 50.3568 219.773 51.0565 213.245 50.9612ZM217.26 40.1974V27.0096C217.26 25.0679 215.922 24.0971 213.245 24.0971V43.0969C215.922 43.0969 217.26 42.126 217.26 40.1844V40.1974Z" fill="#FF7222"/>
<path d="M69.6904 95.9314L79.2645 130L88.8412 95.9314H69.6904Z" fill="#EA493D"/>
<path d="M72.7173 99.0336L79.2643 122.336L85.8139 99.0336H72.7173Z" fill="#FCA84C"/>
<path d="M79.2672 99.522C80.6212 99.522 81.7184 103.294 81.7184 107.948C81.7184 112.601 80.6212 116.376 79.2672 116.376C77.9131 116.376 76.8159 112.603 76.8159 107.948C76.8159 103.292 77.9131 99.522 79.2672 99.522Z" fill="#EA493D"/>
<path d="M83.9619 69.3115H74.5693V74.9494H83.9619V69.3115Z" fill="#474747"/>
<path d="M72.9923 101.083C79.4485 105.778 85.1836 101.408 85.8451 100.907C86.5065 100.405 90.0446 97.55 90.3896 92.6292C90.7346 87.7085 87.3288 82.8734 87.3288 82.8734L86.3768 81.0548C86.0473 80.3301 85.8086 79.5674 85.6661 78.7841C85.3782 77.5422 85.3626 76.0899 84.6726 74.9883C84.5822 74.8498 84.4779 74.721 84.3614 74.6038H73.9339C73.1272 75.7183 73.1557 76.8563 72.956 78.2411C72.7121 79.8389 71.9832 81.286 71.2129 82.676C70.9846 83.0891 69.0599 86.8979 68.6319 88.0514C68.2039 89.205 66.5361 96.3886 72.9923 101.083Z" fill="#FCA84C"/>
<path d="M81.9077 74.6038L82.7845 89.7272L81.8584 88.0384C81.8369 87.9885 81.8003 87.9466 81.7538 87.9187C81.7073 87.8907 81.6531 87.8781 81.5991 87.8825C81.5456 87.8886 81.4948 87.9096 81.4526 87.9432C81.4105 87.9767 81.3785 88.0214 81.3604 88.0722L80.3773 90.2857L79.3631 87.9475C79.3631 87.8786 79.3358 87.8125 79.2871 87.7638C79.2385 87.715 79.1725 87.6877 79.1037 87.6877C79.0349 87.6877 78.969 87.715 78.9203 87.7638C78.8717 87.8125 78.8443 87.8786 78.8443 87.9475L77.8197 90.226L77.1038 88.1475C77.088 88.0913 77.0567 88.0405 77.0137 88.0011C76.9706 87.9616 76.9174 87.935 76.86 87.9241C76.8053 87.92 76.7508 87.9334 76.7042 87.9624C76.6576 87.9913 76.6213 88.0343 76.6006 88.0852L75.755 89.6674L76.7511 74.6038H76.1648L75.0858 91.0236C75.0758 91.1006 75.0889 91.1788 75.1236 91.2482C75.1583 91.3177 75.2128 91.3752 75.2803 91.4133C75.312 91.4265 75.3459 91.4332 75.3802 91.4331C75.4145 91.433 75.4484 91.4261 75.48 91.4128C75.5116 91.3995 75.5402 91.3801 75.5643 91.3557C75.5883 91.3312 75.6073 91.3023 75.6201 91.2704L76.79 89.0699L77.5292 91.2159C77.5447 91.2751 77.5778 91.3282 77.6241 91.3681C77.6705 91.408 77.7278 91.4328 77.7886 91.4393C77.8456 91.4376 77.9007 91.4189 77.9469 91.3856C77.9932 91.3522 78.0284 91.3058 78.048 91.2522L79.1063 88.914L80.1257 91.2522C80.1451 91.3064 80.1801 91.3535 80.2263 91.3878C80.2725 91.422 80.3277 91.4417 80.3851 91.4445C80.4427 91.4441 80.4988 91.4256 80.5453 91.3915C80.5919 91.3575 80.6266 91.3097 80.6445 91.2548L81.6535 88.9763L82.9271 91.2912C82.954 91.3539 83.0045 91.4035 83.0676 91.4293C83.1306 91.4551 83.2013 91.4549 83.2643 91.4289C83.3304 91.3894 83.3837 91.3316 83.4177 91.2624C83.4518 91.1933 83.4652 91.1158 83.4563 91.0392L82.4939 74.6038H81.9077Z" fill="#474747"/>
<path d="M79.2644 0L52.3501 79.6986L79.2644 71.6316L106.179 79.6986L79.2644 0Z" fill="#EF4C48"/>
<path d="M79.2646 0L74.2402 73.1385L79.2646 71.6316L84.289 73.1385L79.2646 0Z" fill="#D63936"/>
<path d="M120.079 82.5565H112.985V88.1658H123.034C123.301 88.165 123.567 88.1789 123.833 88.2073C124.078 88.232 124.318 88.2879 124.549 88.3736C124.92 88.5062 125.257 88.7211 125.534 89.0023C125.816 89.2972 126.026 89.6527 126.149 90.0416C126.234 90.2709 126.289 90.5102 126.313 90.7534C126.341 91.0174 126.355 91.2829 126.354 91.5485V102.598C126.354 103.107 126.285 103.614 126.149 104.105C126.069 104.3 125.978 104.489 125.89 104.669C125.798 104.846 125.681 105.009 125.542 105.152C125.404 105.292 125.253 105.418 125.091 105.529C124.917 105.649 124.723 105.737 124.518 105.789C124.213 105.89 123.895 105.946 123.573 105.957C123.164 105.986 122.821 105.999 122.549 105.999H110.358C110.085 105.999 109.73 105.986 109.291 105.957C108.957 105.949 108.626 105.892 108.308 105.789C107.933 105.666 107.594 105.451 107.323 105.162C107.041 104.867 106.831 104.512 106.708 104.123C106.623 103.894 106.569 103.655 106.544 103.411C106.516 103.147 106.502 102.882 106.503 102.616V97.0798H112.894V100.346H120.03V93.6893H112.082C111.125 93.6893 110.407 93.6893 109.93 93.6685C109.601 93.6659 109.273 93.6451 108.946 93.6061C108.77 93.5802 108.597 93.5385 108.428 93.4814C108.053 93.3568 107.715 93.1407 107.445 92.8527C107.161 92.5595 106.95 92.2034 106.83 91.8135C106.681 91.3836 106.611 90.9303 106.622 90.4755V80.2546C106.624 79.7453 106.694 79.2384 106.83 78.7477C106.91 78.5529 106.998 78.3632 107.089 78.1814C107.183 78.0053 107.3 77.8434 107.439 77.7007C107.577 77.5601 107.728 77.4339 107.891 77.324C108.065 77.2046 108.259 77.1167 108.464 77.0642C108.789 76.9624 109.127 76.9064 109.468 76.8979C109.919 76.8693 110.282 76.8563 110.555 76.8563H122.448C122.707 76.8563 123.104 76.8563 123.597 76.8979C123.958 76.9041 124.317 76.96 124.663 77.0642C125.043 77.1765 125.384 77.3945 125.646 77.6929C125.929 77.987 126.14 78.3427 126.263 78.7321C126.345 78.9622 126.4 79.2011 126.427 79.444C126.454 79.7081 126.468 79.9735 126.468 80.239V85.7755H120.079V82.5565Z" fill="#FF7222"/>
<path d="M140.584 105.996H136.434V82.5565H129.431V76.8641H150.701V82.5565H143.578V105.996H140.584Z" fill="#FF7222"/>
<path d="M166.298 98.8802L166.176 76.8641H172.697V102.606C172.697 102.871 172.683 103.137 172.655 103.401C172.629 103.644 172.574 103.883 172.492 104.113C172.369 104.502 172.159 104.857 171.877 105.152C171.6 105.433 171.263 105.647 170.892 105.778C170.593 105.878 170.282 105.935 169.968 105.947C169.571 105.976 169.237 105.989 168.964 105.989H156.578C156.319 105.989 155.977 105.976 155.595 105.947C155.288 105.934 154.984 105.877 154.693 105.778C154.488 105.726 154.293 105.638 154.119 105.518C153.956 105.409 153.805 105.283 153.668 105.142C153.528 104.998 153.41 104.836 153.318 104.658C153.222 104.479 153.134 104.289 153.058 104.095C152.923 103.604 152.854 103.097 152.854 102.588V76.8641H158.962L159.209 100.346H166.303L166.298 98.8802Z" fill="#FF7222"/>
<path d="M196.07 78.7607C196.178 79.1427 196.24 79.5359 196.257 79.9325C196.257 80.3222 196.275 80.6573 196.275 80.9379V102.619C196.275 103.128 196.206 103.635 196.07 104.126C195.99 104.321 195.899 104.51 195.811 104.69C195.718 104.867 195.6 105.03 195.461 105.173C195.323 105.313 195.172 105.44 195.009 105.55C194.835 105.67 194.641 105.758 194.436 105.809C194.212 105.896 193.977 105.952 193.738 105.978C193.48 106.007 193.22 106.021 192.96 106.02H176.468L176.388 76.8875H192.955C193.215 76.8864 193.475 76.9003 193.733 76.9291C193.972 76.9553 194.206 77.0111 194.431 77.0954C194.635 77.1482 194.829 77.2361 195.004 77.3552C195.166 77.4658 195.318 77.5919 195.455 77.7319C195.594 77.8746 195.712 78.0365 195.806 78.2125C195.899 78.3632 195.99 78.5529 196.07 78.7607ZM189.879 100.359L189.757 82.5695H182.784V100.359H189.879Z" fill="#FF7222"/>
<path d="M206.324 105.996H199.229V76.8641H206.275L206.324 105.996Z" fill="#FF7222"/>
<path d="M228.141 78.7607C228.277 79.2515 228.346 79.7584 228.346 80.2676V102.611C228.346 103.12 228.277 103.627 228.141 104.118C228.058 104.313 227.97 104.503 227.882 104.682C227.789 104.858 227.672 105.021 227.534 105.165C227.396 105.305 227.245 105.431 227.083 105.542C226.909 105.662 226.715 105.75 226.51 105.802C226.285 105.888 226.051 105.944 225.812 105.97C225.554 105.999 225.294 106.013 225.034 106.012H211.818C211.558 106.013 211.298 105.999 211.04 105.97C210.801 105.944 210.566 105.888 210.342 105.802C210.137 105.75 209.943 105.662 209.769 105.542C209.606 105.431 209.455 105.305 209.317 105.165C209.178 105.022 209.061 104.86 208.97 104.682C208.874 104.503 208.786 104.313 208.71 104.118C208.575 103.627 208.506 103.12 208.505 102.611V80.2676C208.506 79.7584 208.575 79.2515 208.71 78.7607C208.793 78.5659 208.881 78.3762 208.97 78.1944C209.061 78.0178 209.178 77.8558 209.317 77.7137C209.456 77.5743 209.607 77.4482 209.769 77.337C209.943 77.2179 210.137 77.13 210.342 77.0772C210.567 76.9932 210.801 76.9374 211.04 76.9109C211.298 76.8821 211.558 76.8682 211.818 76.8693H225.023C225.283 76.8682 225.543 76.8821 225.802 76.9109C226.04 76.9374 226.274 76.9932 226.499 77.0772C226.704 77.13 226.898 77.2179 227.073 77.337C227.234 77.4482 227.385 77.5743 227.524 77.7137C227.661 77.8572 227.778 78.0189 227.871 78.1944C227.97 78.3632 228.063 78.5529 228.141 78.7607ZM221.95 100.359V82.5565H214.853V100.346H221.95V100.359Z" fill="#FF7222"/>
<path d="M110.197 113.009C110.238 113.159 110.259 113.315 110.259 113.471V120.33C110.258 120.486 110.237 120.642 110.197 120.792C110.172 120.851 110.144 120.908 110.114 120.964C110.086 121.019 110.05 121.069 110.007 121.112C109.965 121.154 109.919 121.193 109.87 121.226C109.816 121.263 109.756 121.29 109.693 121.304C109.625 121.331 109.554 121.348 109.481 121.356C109.401 121.365 109.322 121.369 109.242 121.369H105.196C105.116 121.369 105.036 121.365 104.957 121.356C104.884 121.348 104.812 121.331 104.744 121.304C104.681 121.289 104.621 121.263 104.568 121.226C104.519 121.193 104.473 121.154 104.43 121.112C104.387 121.069 104.351 121.019 104.324 120.964C104.295 120.909 104.267 120.852 104.241 120.792C104.2 120.642 104.179 120.486 104.179 120.33V113.471C104.179 113.315 104.2 113.159 104.241 113.009C104.267 112.949 104.295 112.892 104.324 112.835C104.352 112.781 104.388 112.732 104.43 112.689C104.473 112.646 104.519 112.607 104.568 112.572C104.622 112.537 104.681 112.511 104.744 112.497C104.812 112.47 104.884 112.453 104.957 112.445C105.036 112.441 105.116 112.441 105.196 112.445H109.242C109.321 112.441 109.401 112.441 109.481 112.445C109.554 112.453 109.625 112.47 109.693 112.497C109.756 112.511 109.816 112.536 109.87 112.572C109.919 112.607 109.965 112.646 110.007 112.689C110.05 112.732 110.086 112.781 110.114 112.835C110.145 112.892 110.171 112.949 110.197 113.009ZM108.3 119.623V114.167H106.127V119.623H108.3Z" fill="#FF7222"/>
<path d="M115.986 117.137V112.432H117.934V121.369H116.238L113.286 116.651V121.369H111.39V112.432H113.073L115.986 117.137Z" fill="#FF7222"/>
<path d="M118.7 112.432H123.563V114.175H120.648V115.892H123.325V117.381H120.648V119.623H123.563V121.369H118.7V112.432Z" fill="#FF7222"/>
<path d="M131.098 118.626H133.059V120.33C133.063 120.411 133.063 120.493 133.059 120.574C133.051 120.649 133.034 120.722 133.01 120.792C132.971 120.912 132.906 121.021 132.82 121.112C132.736 121.199 132.633 121.264 132.52 121.304C132.449 121.332 132.375 121.349 132.299 121.356C132.219 121.356 132.138 121.369 132.04 121.369H127.996C127.916 121.369 127.836 121.365 127.757 121.356C127.684 121.348 127.613 121.331 127.544 121.304C127.481 121.29 127.422 121.263 127.368 121.226C127.318 121.193 127.272 121.155 127.231 121.112C127.187 121.069 127.15 121.019 127.122 120.964C127.093 120.909 127.067 120.852 127.041 120.792C127 120.642 126.979 120.486 126.979 120.33V113.471C126.979 113.315 127 113.159 127.041 113.009C127.067 112.949 127.093 112.892 127.122 112.835C127.151 112.781 127.187 112.732 127.231 112.689C127.272 112.645 127.318 112.606 127.368 112.572C127.422 112.536 127.482 112.511 127.544 112.497C127.613 112.47 127.684 112.453 127.757 112.445C127.837 112.441 127.916 112.441 127.996 112.445H132.04C132.125 112.445 132.206 112.445 132.299 112.445C132.375 112.452 132.449 112.469 132.52 112.497C132.636 112.531 132.741 112.597 132.82 112.689C132.906 112.78 132.971 112.889 133.01 113.009C133.034 113.079 133.051 113.152 133.059 113.227C133.063 113.308 133.063 113.39 133.059 113.471V115.162H131.098V114.175H128.924V119.631H131.098V118.633V118.626Z" fill="#FF7222"/>
<path d="M139.98 113.009C140.021 113.159 140.042 113.315 140.042 113.471V120.33C140.042 120.486 140.021 120.642 139.98 120.792C139.954 120.852 139.928 120.909 139.899 120.964C139.871 121.019 139.834 121.069 139.79 121.112C139.749 121.155 139.703 121.193 139.653 121.226C139.6 121.263 139.54 121.289 139.477 121.304C139.408 121.331 139.337 121.349 139.264 121.356C139.185 121.365 139.105 121.369 139.025 121.369H134.981C134.902 121.369 134.822 121.365 134.743 121.356C134.669 121.348 134.597 121.331 134.527 121.304C134.465 121.289 134.406 121.263 134.354 121.226C134.303 121.193 134.256 121.155 134.214 121.112C134.17 121.069 134.134 121.019 134.107 120.964C134.077 120.908 134.05 120.851 134.027 120.792C133.985 120.642 133.963 120.486 133.962 120.33V113.471C133.963 113.315 133.985 113.159 134.027 113.009C134.05 112.949 134.079 112.892 134.107 112.834C134.135 112.781 134.171 112.732 134.214 112.689C134.256 112.645 134.303 112.606 134.354 112.572C134.406 112.536 134.465 112.511 134.527 112.497C134.597 112.47 134.669 112.453 134.743 112.445C134.822 112.441 134.902 112.441 134.981 112.445H139.025C139.105 112.441 139.184 112.441 139.264 112.445C139.337 112.452 139.408 112.47 139.477 112.497C139.54 112.511 139.599 112.536 139.653 112.572C139.703 112.606 139.749 112.645 139.79 112.689C139.834 112.732 139.871 112.781 139.899 112.834C139.928 112.892 139.954 112.949 139.98 113.009ZM138.084 119.623V114.167H135.91V119.623H138.084Z" fill="#FF7222"/>
<path d="M145.671 112.432H147.505V121.369H145.808V116.893L144.841 120.125H143.622L142.654 116.932V121.348H140.947V112.432H142.644L144.2 116.407L145.671 112.432Z" fill="#FF7222"/>
<path d="M153.206 112.432H155.04V121.369H153.359V116.893L152.392 120.125H151.173L150.205 116.932V121.348H148.483V112.432H150.179L151.751 116.407L153.206 112.432Z" fill="#FF7222"/>
<path d="M160.142 119.176L160.103 112.421H162.101V120.33C162.1 120.412 162.096 120.493 162.088 120.574C162.079 120.648 162.063 120.722 162.038 120.792C162.001 120.912 161.936 121.021 161.849 121.112C161.765 121.199 161.662 121.264 161.548 121.304C161.477 121.332 161.403 121.349 161.328 121.356C161.25 121.356 161.167 121.369 161.084 121.369H157.037C156.958 121.369 156.878 121.365 156.799 121.356C156.726 121.348 156.654 121.331 156.586 121.304C156.523 121.289 156.463 121.263 156.41 121.226C156.36 121.192 156.314 121.154 156.272 121.112C156.229 121.069 156.193 121.019 156.166 120.964C156.137 120.909 156.109 120.852 156.083 120.792C156.042 120.642 156.021 120.486 156.021 120.33V112.432H157.893L157.969 119.623H160.142V119.176Z" fill="#FF7222"/>
<path d="M167.579 117.137V112.432H169.524V121.369H167.828L164.876 116.638V121.369H162.98V112.432H164.663L167.579 117.137Z" fill="#FF7222"/>
<path d="M170.292 121.369V112.432H172.453V121.356H170.282L170.292 121.369Z" fill="#FF7222"/>
<path d="M177.464 121.369H175.278V114.175H173.13V112.432H179.648V114.175H177.464V121.369Z" fill="#FF7222"/>
<path d="M184.359 118.355L184.12 121.369H181.936L182.426 118.394L180.151 112.445H182.361L183.399 115.677L184.582 112.445H186.955L184.359 118.355Z" fill="#FF7222"/>
<path d="M190.239 112.432H195.1V114.175H192.187V115.892H194.862V117.381H192.187L192.161 121.356H190.239V112.432Z" fill="#FF7222"/>
<path d="M201.896 113.009C201.937 113.159 201.958 113.315 201.959 113.471V120.33C201.958 120.486 201.937 120.642 201.896 120.792C201.872 120.851 201.844 120.908 201.813 120.964C201.786 121.019 201.75 121.069 201.707 121.112C201.665 121.154 201.619 121.193 201.569 121.226C201.516 121.263 201.456 121.29 201.393 121.304C201.325 121.331 201.253 121.348 201.18 121.356C201.101 121.365 201.021 121.369 200.942 121.369H196.898C196.817 121.369 196.737 121.365 196.657 121.356C196.584 121.348 196.512 121.331 196.444 121.304C196.381 121.289 196.321 121.263 196.268 121.226C196.218 121.193 196.172 121.154 196.13 121.112C196.087 121.069 196.051 121.019 196.024 120.964C195.995 120.909 195.967 120.852 195.941 120.792C195.9 120.642 195.879 120.486 195.878 120.33V113.471C195.879 113.315 195.9 113.159 195.941 113.009C195.967 112.949 195.995 112.892 196.024 112.835C196.052 112.781 196.087 112.732 196.13 112.689C196.172 112.646 196.218 112.607 196.268 112.572C196.321 112.537 196.381 112.511 196.444 112.497C196.512 112.47 196.584 112.453 196.657 112.445C196.737 112.441 196.817 112.441 196.898 112.445H200.942C201.021 112.441 201.101 112.441 201.18 112.445C201.253 112.453 201.325 112.47 201.393 112.497C201.456 112.511 201.516 112.536 201.569 112.572C201.619 112.607 201.665 112.646 201.707 112.689C201.749 112.732 201.785 112.781 201.813 112.835C201.844 112.892 201.865 112.949 201.896 113.009ZM200 119.623V114.167H197.826V119.623H200Z" fill="#FF7222"/>
<path d="M202.952 121.369L202.864 112.445H207.12C207.273 112.445 207.411 112.445 207.535 112.445C207.657 112.452 207.773 112.501 207.862 112.585C207.965 112.685 208.045 112.807 208.095 112.942C208.145 113.077 208.165 113.221 208.153 113.365V116.482C208.158 116.641 208.137 116.8 208.091 116.952C208.052 117.075 207.988 117.188 207.904 117.285C207.797 117.375 207.673 117.443 207.539 117.485C207.406 117.527 207.265 117.542 207.126 117.529H206.762L208.433 121.26V121.369H206.358L204.89 118.049V121.369H202.952ZM204.659 114.188V116.407H206.355V114.188H204.659Z" fill="#FF7222"/>
<path d="M214.093 119.867C214.093 119.912 214.072 119.997 214.056 120.127C214.041 120.257 214.02 120.387 213.999 120.556C213.979 120.725 213.958 120.868 213.937 121.018C213.916 121.169 213.896 121.278 213.88 121.359H211.844V121.333L213.766 112.434H215.989L217.911 121.333V121.359H215.872C215.854 121.195 215.831 120.987 215.797 120.735C215.763 120.483 215.722 120.195 215.67 119.87L214.093 119.867ZM214.37 118.381H215.387C215.327 118.038 215.257 117.602 215.174 117.082C215.091 116.563 214.993 115.968 214.884 115.292C214.85 115.464 214.819 115.656 214.785 115.869C214.752 116.082 214.713 116.318 214.671 116.576L214.37 118.381Z" fill="#FF7222"/>
<path d="M220.751 112.432L220.764 119.561H223.301V121.356H218.816V112.432H220.751Z" fill="#FF7222"/>
<path d="M225.763 112.432V119.561H228.323L228.31 121.356H223.828V112.432H225.763Z" fill="#FF7222"/>
</g>
<defs>
<clipPath id="clip0">
<rect width="229" height="130" fill="white"/>
</clipPath>
</defs>
</svg>
