<svg width="54" height="44" viewBox="0 0 54 44" fill="none" xmlns="http://www.w3.org/2000/svg">
<path fill-rule="evenodd" clip-rule="evenodd" d="M48.9316 0.974121H4.95179C3.70953 0.974119 2.51802 1.39727 1.63873 2.15071C0.759443 2.90414 0.264198 3.9263 0.261719 4.99288V32.1758C0.264198 33.2424 0.759443 34.2646 1.63873 35.018C2.51802 35.7714 3.70953 36.1946 4.95179 36.1946H20.3512V40.9688H16.0263C15.6117 40.9688 15.2141 41.1104 14.9209 41.3621C14.6277 41.6138 14.463 41.9551 14.463 42.311C14.463 42.667 14.6277 43.0085 14.9209 43.2602C15.2141 43.5119 15.6117 43.6534 16.0263 43.6534H37.8571C38.2718 43.6534 38.6693 43.5119 38.9625 43.2602C39.2557 43.0085 39.4204 42.667 39.4204 42.311C39.4204 41.9551 39.2557 41.6138 38.9625 41.3621C38.6693 41.1104 38.2718 40.9688 37.8571 40.9688H33.5322V36.1946H48.9316C50.1739 36.1946 51.3654 35.7714 52.2447 35.018C53.124 34.2646 53.6192 33.2424 53.6217 32.1758V4.99288C53.6192 3.9263 53.124 2.90414 52.2447 2.15071C51.3654 1.39727 50.1739 0.974119 48.9316 0.974121ZM48.9316 33.51H4.95179C4.53885 33.5098 4.14276 33.3694 3.84989 33.1195C3.55703 32.8696 3.39117 32.5304 3.38845 32.1758V28.567H50.495V32.1758C50.4923 32.5304 50.3265 32.8696 50.0336 33.1195C49.7407 33.3694 49.3446 33.5098 48.9316 33.51ZM23.478 40.9688V36.1946H30.4054V40.9688H23.478ZM4.95179 3.65068H48.9316C49.346 3.65132 49.7433 3.79292 50.0363 4.04451C50.3294 4.2961 50.4943 4.63709 50.495 4.99288V25.8904H3.38845V4.99288C3.38919 4.63709 3.55413 4.2961 3.84715 4.04451C4.14018 3.79292 4.53739 3.65132 4.95179 3.65068ZM27.6157 29.8209H26.2677C25.8531 29.8209 25.4554 29.9622 25.1622 30.2139C24.869 30.4657 24.7043 30.8071 24.7043 31.1631C24.7043 31.5191 24.869 31.8605 25.1622 32.1123C25.4554 32.364 25.8531 32.5053 26.2677 32.5053H27.6157C28.0303 32.5053 28.428 32.364 28.7212 32.1123C29.0144 31.8605 29.1791 31.5191 29.1791 31.1631C29.1791 30.8071 29.0144 30.4657 28.7212 30.2139C28.428 29.9622 28.0303 29.8209 27.6157 29.8209ZM12.3098 24.5402H35.2265C35.6409 24.5396 36.0382 24.3979 36.3312 24.1464C36.6242 23.8948 36.7892 23.5538 36.7899 23.198V18.6647H41.5736C41.988 18.6641 42.3851 18.5225 42.6782 18.2709C42.9712 18.0193 43.1362 17.6783 43.137 17.3225V6.49599C43.1362 6.1402 42.9712 5.79901 42.6782 5.54742C42.3851 5.29584 41.988 5.15423 41.5736 5.15359H18.6569C18.2425 5.15423 17.8452 5.29584 17.5522 5.54742C17.2592 5.79901 17.0942 6.1402 17.0935 6.49599V11.0291H12.3098C11.8954 11.0297 11.4983 11.1713 11.2053 11.4229C10.9122 11.6745 10.7472 12.0155 10.7464 12.3713V23.198C10.7472 23.5538 10.9122 23.8948 11.2053 24.1464C11.4983 24.3979 11.8954 24.5396 12.3098 24.5402ZM13.8732 13.7137H33.6632V21.8556H13.8732V13.7137ZM40.0102 7.8382V15.9803H36.7899V12.3713C36.7892 12.0155 36.6242 11.6745 36.3312 11.4229C36.0382 11.1713 35.6409 11.0297 35.2265 11.0291H20.2202V7.8382H40.0102ZM18.451 18.1102H17.8798C17.4664 18.1102 17.0701 18.2511 16.7778 18.502C16.4855 18.753 16.3212 19.0935 16.3212 19.4485C16.3212 19.8034 16.4855 20.1437 16.7778 20.3947C17.0701 20.6456 17.4664 20.7867 17.8798 20.7867H18.451C18.6557 20.7867 18.8583 20.7519 19.0474 20.6847C19.2365 20.6174 19.4083 20.5189 19.553 20.3947C19.6978 20.2704 19.8126 20.123 19.8909 19.9606C19.9693 19.7982 20.0096 19.6242 20.0096 19.4485C20.0096 19.2727 19.9693 19.0987 19.8909 18.9363C19.8126 18.7739 19.6978 18.6263 19.553 18.502C19.4083 18.3778 19.2365 18.2793 19.0474 18.212C18.8583 18.1448 18.6557 18.1102 18.451 18.1102ZM29.8718 18.8013H29.2914C28.8768 18.8013 28.4791 18.9428 28.1859 19.1945C27.8928 19.4463 27.728 19.7877 27.728 20.1437C27.728 20.4997 27.8928 20.8411 28.1859 21.0928C28.4791 21.3446 28.8768 21.4859 29.2914 21.4859H29.8718C30.0771 21.4859 30.2804 21.4511 30.4701 21.3837C30.6597 21.3162 30.8322 21.2175 30.9773 21.0928C31.1225 20.9682 31.2376 20.8201 31.3162 20.6572C31.3947 20.4944 31.4352 20.32 31.4352 20.1437C31.4352 19.9674 31.3947 19.7928 31.3162 19.63C31.2376 19.4671 31.1225 19.3192 30.9773 19.1945C30.8322 19.0699 30.6597 18.971 30.4701 18.9035C30.2804 18.8361 30.0771 18.8013 29.8718 18.8013ZM26.586 15.5141C26.5867 15.8699 26.7516 16.2109 27.0447 16.4624C27.3377 16.714 27.735 16.8556 28.1494 16.8563H28.7204C29.135 16.8563 29.5326 16.715 29.8258 16.4632C30.119 16.2115 30.2837 15.8701 30.2837 15.5141C30.2837 15.1581 30.119 14.8166 29.8258 14.5649C29.5326 14.3132 29.135 14.1719 28.7204 14.1719H28.1494C27.735 14.1725 27.3377 14.3141 27.0447 14.5657C26.7516 14.8173 26.5867 15.1583 26.586 15.5141ZM26.2302 18.1584C26.2297 17.9827 26.1889 17.8087 26.11 17.6465C26.0312 17.4843 25.9159 17.3369 25.7707 17.213C25.6255 17.0891 25.4533 16.9911 25.2639 16.9244C25.0745 16.8576 24.8716 16.8235 24.6668 16.8241H24.0958C23.6824 16.8241 23.2861 16.9652 22.9937 17.2162C22.7014 17.4671 22.5372 17.8074 22.5372 18.1624C22.5372 18.5173 22.7014 18.8578 22.9937 19.1088C23.2861 19.3598 23.6824 19.5007 24.0958 19.5007H24.6668C25.0812 19.5 25.4785 19.3584 25.7715 19.1068C26.0646 18.8552 26.2295 18.5142 26.2302 18.1584ZM18.6382 17.1779H19.2092C19.6238 17.1779 20.0215 17.0364 20.3147 16.7846C20.6079 16.5329 20.7726 16.1915 20.7726 15.8355C20.7726 15.4795 20.6079 15.1381 20.3147 14.8863C20.0215 14.6346 19.6238 14.4933 19.2092 14.4933H18.6382C18.2235 14.4933 17.8258 14.6346 17.5327 14.8863C17.2395 15.1381 17.0748 15.4795 17.0748 15.8355C17.0748 16.1915 17.2395 16.5329 17.5327 16.7846C17.8258 17.0364 18.2235 17.1779 18.6382 17.1779Z" fill="#CB4700"/>
</svg>
