<svg width="95" height="81" viewBox="0 0 95 81" fill="none" xmlns="http://www.w3.org/2000/svg">
<path opacity="0.2" d="M47.3709 80.8945C73.3033 80.8945 94.3257 62.8444 94.3257 40.5784C94.3257 18.3124 73.3033 0.262207 47.3709 0.262207C21.4384 0.262207 0.416016 18.3124 0.416016 40.5784C0.416016 62.8444 21.4384 80.8945 47.3709 80.8945Z" fill="white"/>
<path fill-rule="evenodd" clip-rule="evenodd" d="M43.5553 25.6043C40.7693 25.6039 38.0458 26.3128 35.7292 27.6414C33.4126 28.97 31.607 30.8587 30.5407 33.0685C29.4744 35.2783 29.1954 37.7099 29.7389 40.0559C30.2824 42.4018 31.624 44.5567 33.5941 46.2479C35.5641 47.9392 38.0741 49.0908 40.8066 49.5571C43.539 50.0235 46.3711 49.7836 48.9448 48.8678C51.5184 47.952 53.7179 46.4015 55.2651 44.4123C56.8122 42.4232 57.6375 40.0847 57.6366 37.6928C57.6367 36.1052 57.2726 34.533 56.5649 33.0662C55.8573 31.5994 54.8201 30.2668 53.5124 29.1442C52.2048 28.0217 50.6524 27.1312 48.9439 26.5239C47.2354 25.9165 45.4044 25.604 43.5553 25.6043ZM43.5553 26.7538C45.5964 26.7545 47.6073 27.177 49.4182 27.9856C51.2291 28.7942 52.7867 29.965 53.9594 31.3994L52.2828 32.8381C51.8732 32.6293 51.4073 32.5157 50.931 32.5085C50.4575 32.5068 49.992 32.6132 49.5821 32.8168C49.1723 33.0204 48.8329 33.3139 48.5986 33.6673C48.3644 34.0206 48.2438 34.421 48.2491 34.8276C48.2545 35.2341 48.3856 35.6321 48.6291 35.9808L44.2386 39.7503C43.8305 39.5375 43.362 39.4249 42.8845 39.4249C42.4069 39.4249 41.9385 39.5375 41.5304 39.7503L38.4814 37.1301C38.6766 36.8471 38.7987 36.5314 38.8394 36.2044C38.8801 35.8773 38.8384 35.5466 38.7172 35.2345C38.596 34.9225 38.3981 34.6366 38.1369 34.396C37.8757 34.1554 37.5573 33.9658 37.2033 33.8401C36.8492 33.7144 36.4679 33.6556 36.0851 33.6675C35.7022 33.6794 35.3269 33.7619 34.9844 33.9092C34.6419 34.0566 34.3403 34.2654 34.1001 34.5215C33.8598 34.7777 33.6865 35.0754 33.592 35.3941H31.1037C31.7189 32.95 33.2895 30.7601 35.5546 29.1884C37.8196 27.6166 40.6429 26.7575 43.5553 26.7538ZM52.2725 34.8153C52.2731 35.0432 52.1949 35.2662 52.0478 35.4559C51.9008 35.6456 51.6914 35.7936 51.4464 35.8811C51.2013 35.9687 50.9315 35.9918 50.6711 35.9476C50.4107 35.9035 50.1714 35.794 49.9835 35.633C49.7956 35.472 49.6676 35.2668 49.6156 35.0433C49.5636 34.8198 49.5899 34.5881 49.6914 34.3775C49.7928 34.1669 49.9648 33.9869 50.1854 33.8603C50.4061 33.7336 50.6656 33.666 50.931 33.666C51.2864 33.6658 51.6273 33.7867 51.8789 34.0022C52.1304 34.2178 52.272 34.5102 52.2725 34.8153ZM44.2218 41.7276C44.2223 41.9556 44.1441 42.1785 43.997 42.3682C43.8499 42.558 43.6405 42.7059 43.3954 42.7934C43.1503 42.881 42.8804 42.9041 42.62 42.8599C42.3595 42.8156 42.1202 42.7061 41.9324 42.545C41.7445 42.384 41.6165 42.1786 41.5646 41.9551C41.5128 41.7315 41.5393 41.4998 41.6409 41.2893C41.7425 41.0787 41.9146 40.8987 42.1354 40.7721C42.3562 40.6455 42.6157 40.5781 42.8812 40.5782C43.0574 40.5777 43.2321 40.6071 43.3951 40.6646C43.5581 40.7221 43.7063 40.8066 43.8312 40.9134C43.956 41.0202 44.0551 41.147 44.1228 41.2867C44.1905 41.4264 44.2254 41.5763 44.2255 41.7276H44.2218ZM37.5162 35.9647C37.5167 36.1926 37.4385 36.4156 37.2914 36.6053C37.1443 36.795 36.9349 36.9431 36.6898 37.0306C36.4447 37.1181 36.1748 37.1412 35.9144 37.0969C35.654 37.0527 35.4147 36.9432 35.2268 36.7821C35.039 36.621 34.911 36.4158 34.8591 36.1922C34.8073 35.9687 34.8338 35.7369 34.9354 35.5263C35.037 35.3157 35.209 35.1357 35.4298 35.0092C35.6506 34.8826 35.9102 34.8151 36.1757 34.8153C36.531 34.8159 36.8716 34.9371 37.1234 35.1524C37.3752 35.3677 37.5177 35.6596 37.52 35.9647H37.5162ZM49.7421 47.2654C47.7023 48.2393 45.3901 48.7134 43.0578 48.6359C40.7255 48.5584 38.4629 47.9323 36.5168 46.8259C34.5708 45.7196 33.0161 44.1755 32.0225 42.3621C31.029 40.5488 30.6347 38.536 30.8827 36.5434H33.5882C33.7375 37.0359 34.0721 37.4723 34.54 37.7848C35.0079 38.0973 35.5829 38.2684 36.1757 38.2715C36.6538 38.2718 37.1226 38.1577 37.5293 37.9419L40.5793 40.5621C40.3359 40.9116 40.2048 41.3103 40.1994 41.7174C40.1939 42.1246 40.3144 42.5258 40.5484 42.88C40.7823 43.2342 41.1215 43.5287 41.5313 43.7337C41.9412 43.9386 42.4069 44.0466 42.8812 44.0466C43.3555 44.0466 43.8213 43.9386 44.2311 43.7337C44.6409 43.5287 44.9801 43.2342 45.2141 42.88C45.448 42.5258 45.5685 42.1246 45.5631 41.7174C45.5576 41.3103 45.4265 40.9116 45.1831 40.5621L49.5736 36.7926C49.984 37.0013 50.4505 37.1148 50.9273 37.1221C51.4009 37.124 51.8666 37.0178 52.2767 36.8143C52.6867 36.6107 53.0263 36.3172 53.2606 35.9638C53.4949 35.6104 53.6154 35.2099 53.6099 34.8032C53.6044 34.3966 53.4731 33.9985 53.2293 33.6499L54.6915 32.396C56.3303 34.9312 56.73 37.9214 55.8027 40.7095C54.8753 43.4976 52.6969 45.8555 49.7459 47.2654H49.7421ZM60.3148 29.0525C60.9086 29.0526 61.4854 28.8826 61.954 28.5696C62.4226 28.2567 62.7564 27.8185 62.9024 27.3244H67.0213V26.175H62.9024C62.8082 25.8551 62.6349 25.5563 62.3942 25.2991C62.1535 25.0419 61.851 24.8322 61.5075 24.6843C61.1639 24.5364 60.7873 24.4539 60.4032 24.4422C60.0191 24.4305 59.6366 24.4899 59.2817 24.6165C58.9269 24.7432 58.6079 24.9339 58.3466 25.1759C58.0853 25.4178 57.8878 25.7053 57.7674 26.0187C57.6471 26.3321 57.6068 26.664 57.6493 26.992C57.6919 27.3199 57.8162 27.6362 58.0138 27.9192L56.8352 28.9238C54.8498 26.7051 52.1544 25.0312 49.0785 24.1068C46.0027 23.1824 42.6798 23.0475 39.5161 23.7187C36.3524 24.3899 33.4852 25.838 31.2648 27.8861C29.0445 29.9341 27.5673 32.4934 27.014 35.2507C26.4607 38.0081 26.8552 40.844 28.1492 43.412C29.4433 45.9799 31.5808 48.1684 34.3005 49.7099C37.0201 51.2514 40.204 52.0792 43.4627 52.0918C46.7215 52.1045 49.914 51.3015 52.6498 49.7811L54.6737 51.5173L55.6211 52.3291L61.0197 56.9667C61.6789 57.5331 62.5732 57.8515 63.5058 57.8518C64.4384 57.8521 65.3328 57.5342 65.9925 56.9683C66.6522 56.4023 67.023 55.6346 67.0234 54.8339C67.0237 54.0332 66.6536 53.2651 65.9944 52.6988L60.5929 48.0612L59.6446 47.2494L57.6207 45.5052C59.3794 43.1794 60.3154 40.4658 60.3154 37.6928C60.3154 34.9198 59.3794 32.2061 57.6207 29.8803L58.9621 28.7309C59.3722 28.9413 59.8409 29.0524 60.3186 29.0525H60.3148ZM60.3148 25.6043C60.5795 25.6047 60.8382 25.6723 61.0581 25.7988C61.278 25.9253 61.4493 26.1049 61.5503 26.315C61.6514 26.525 61.6776 26.7561 61.6257 26.9789C61.5739 27.2018 61.4462 27.4064 61.2589 27.567C61.0716 27.7276 60.8331 27.8369 60.5734 27.8811C60.3138 27.9253 60.0448 27.9025 59.8003 27.8154C59.5558 27.7284 59.3468 27.5811 59.1998 27.3921C59.0528 27.2031 58.9743 26.981 58.9743 26.7538C58.9744 26.6024 59.0094 26.4526 59.077 26.3129C59.1447 26.1732 59.2438 26.0463 59.3687 25.9395C59.4935 25.8327 59.6417 25.7482 59.8047 25.6907C59.9677 25.6332 60.1424 25.6038 60.3186 25.6043H60.3148ZM65.0395 53.5106C65.247 53.6811 65.413 53.8853 65.528 54.1112C65.643 54.3372 65.7046 54.5804 65.7094 54.8269C65.7142 55.0735 65.662 55.3185 65.5559 55.5476C65.4497 55.7767 65.2917 55.9854 65.091 56.1618C64.8903 56.3382 64.6508 56.4786 64.3865 56.575C64.1222 56.6715 63.8382 56.7219 63.551 56.7235C63.2639 56.7251 62.9792 56.6778 62.7134 56.5844C62.4476 56.4909 62.2061 56.3532 62.0027 56.1791L61.9681 56.1549L56.5694 51.5173L59.6446 48.8729L65.0395 53.5106ZM58.6963 48.0612L55.6211 50.7055L53.7657 49.106C53.8593 49.0417 53.9529 48.9774 54.0418 48.9131C54.1307 48.8488 54.2431 48.7765 54.3423 48.7041C54.4893 48.5916 54.6344 48.4871 54.7767 48.3746C54.8497 48.3183 54.919 48.2621 54.9911 48.2058C55.2663 47.9808 55.5321 47.7557 55.7896 47.5226C55.857 47.4583 55.9235 47.3941 55.9909 47.3378C56.1191 47.2092 56.2436 47.0886 56.3653 46.96C56.4495 46.8796 56.532 46.7912 56.6125 46.7028C56.693 46.6144 56.766 46.5501 56.839 46.4697L58.6963 48.0612ZM56.0957 45.3846C55.8851 45.6418 55.667 45.891 55.4404 46.1241C55.3739 46.1965 55.3019 46.2608 55.2326 46.3331C55.0276 46.534 54.816 46.735 54.597 46.9279C54.5033 47.0163 54.405 47.0966 54.3068 47.177C54.083 47.3619 53.8518 47.5468 53.6121 47.7236C53.5326 47.7798 53.4539 47.8441 53.3725 47.9004C53.0917 48.1013 52.8052 48.2862 52.5103 48.471C49.354 50.4107 45.4637 51.2605 41.6115 50.8519C37.7593 50.4432 34.2269 48.8059 31.7155 46.2649C29.204 43.724 27.8971 40.4652 28.054 37.1354C28.211 33.8056 29.8205 30.6481 32.563 28.2897C35.3054 25.9314 38.9804 24.5447 42.8585 24.4047C46.7365 24.2647 50.5341 25.3817 53.4975 27.5341C56.4608 29.6864 58.3733 32.7166 58.8553 36.0234C59.3373 39.3301 58.3536 42.6717 56.0994 45.3846H56.0957Z" fill="white"/>
</svg>
