<svg width="95" height="81" viewBox="0 0 95 81" fill="none" xmlns="http://www.w3.org/2000/svg">
<path opacity="0.2" d="M47.1018 80.8945C73.0353 80.8945 94.0586 62.8444 94.0586 40.5784C94.0586 18.3124 73.0353 0.262207 47.1018 0.262207C21.1683 0.262207 0.14502 18.3124 0.14502 40.5784C0.14502 62.8444 21.1683 80.8945 47.1018 80.8945Z" fill="white"/>
<path fill-rule="evenodd" clip-rule="evenodd" d="M39.3221 47.0968L39.2941 47.0727C39.2218 47.0111 39.136 46.9626 39.0417 46.9296C38.9474 46.8967 38.8463 46.8801 38.7445 46.8809C38.6426 46.8816 38.542 46.8996 38.4484 46.934C38.3547 46.9683 38.2699 47.0181 38.1988 47.0807C38.0548 47.206 37.9741 47.375 37.9741 47.551C37.9741 47.727 38.0548 47.8959 38.1988 48.0212L38.2269 48.0453C38.2982 48.1066 38.3827 48.1551 38.4759 48.1882C38.5691 48.2213 38.669 48.2383 38.7698 48.2382C38.8728 48.2376 38.9745 48.2195 39.0693 48.185C39.1641 48.1505 39.25 48.1003 39.3221 48.0372C39.3944 47.9757 39.4519 47.9024 39.491 47.8217C39.5302 47.741 39.5503 47.6544 39.5503 47.567C39.5503 47.4796 39.5302 47.3931 39.491 47.3124C39.4519 47.2317 39.3944 47.1584 39.3221 47.0968ZM56.0042 32.7338C53.8463 30.88 50.9773 29.7625 47.9313 29.5894C44.8853 29.4163 41.8698 30.1993 39.4461 31.7927C37.0224 33.3861 35.3555 35.6814 34.7558 38.2513C34.1561 40.8211 34.6644 43.4905 36.1861 45.7626C36.2362 45.8388 36.3035 45.9058 36.3839 45.9596C36.4643 46.0134 36.5564 46.053 36.6547 46.0761C36.753 46.0993 36.8556 46.1055 36.9567 46.0945C37.0579 46.0835 37.1555 46.0553 37.2439 46.0118C37.3331 45.968 37.4113 45.9095 37.4742 45.8398C37.537 45.77 37.5832 45.6904 37.6102 45.6053C37.6371 45.5202 37.6443 45.4314 37.6313 45.3439C37.6182 45.2565 37.5852 45.172 37.5342 45.0955C36.2082 43.1039 35.7709 40.7663 36.3036 38.5183C36.8364 36.2704 38.3029 34.2654 40.4299 32.8771C42.5569 31.4888 45.1993 30.8117 47.8646 30.9722C50.53 31.1327 53.0365 32.1198 54.917 33.7494C56.7975 35.3791 57.9237 37.5401 58.0858 39.8299C58.248 42.1197 57.4349 44.382 55.7982 46.1953C54.1614 48.0085 51.8126 49.2489 49.1895 49.6854C46.5665 50.1219 43.8481 49.7246 41.5409 48.5676C41.4538 48.5228 41.3571 48.4933 41.2566 48.4807C41.156 48.4682 41.0536 48.4729 40.9552 48.4946C40.8568 48.5162 40.7644 48.5544 40.6834 48.607C40.6023 48.6596 40.5342 48.7254 40.483 48.8008C40.4312 48.8767 40.3973 48.9607 40.3834 49.0479C40.3695 49.1351 40.3757 49.2239 40.4018 49.309C40.4279 49.3941 40.4732 49.474 40.5354 49.544C40.5975 49.614 40.6752 49.6728 40.7638 49.7171C43.4067 51.0386 46.5194 51.489 49.5208 50.9842C52.5222 50.4793 55.207 49.0538 57.0736 46.9737C58.9402 44.8936 59.8611 42.3012 59.6643 39.6807C59.4675 37.0602 58.1665 34.5909 56.0042 32.7338ZM66.9945 37.4438C66.9934 37.2852 66.927 37.1321 66.8071 37.0115C66.6872 36.8909 66.5215 36.8106 66.3393 36.7848L63.4652 36.399L61.9487 33.2483L63.6525 31.2228C63.7607 31.0945 63.8116 30.9372 63.7962 30.7794C63.7807 30.6216 63.6998 30.4738 63.5682 30.3628L58.7564 26.2316C58.6254 26.1184 58.4517 26.0489 58.2664 26.0356C58.0812 26.0224 57.8965 26.0662 57.7454 26.1592L55.3957 27.622L51.726 26.32L51.2673 23.8604C51.2385 23.7035 51.1453 23.5606 51.0046 23.4574C50.8638 23.3542 50.6848 23.2976 50.4997 23.2979H43.6846C43.4999 23.2988 43.3216 23.3558 43.1811 23.4588C43.0406 23.5617 42.947 23.704 42.917 23.8604L42.4676 26.328L38.7979 27.6301L36.4482 26.1672C36.2971 26.0742 36.1125 26.0304 35.9272 26.0437C35.742 26.0569 35.5683 26.1264 35.4372 26.2396L30.6254 30.3709C30.4936 30.4834 30.4127 30.6325 30.3972 30.7916C30.3818 30.9506 30.4329 31.1092 30.5412 31.2389L32.2543 33.2563L30.7284 36.407L27.8638 36.8009C27.6809 36.8256 27.5145 36.9056 27.3943 37.0264C27.2741 37.1473 27.2083 37.301 27.2085 37.4599V43.3112C27.2112 43.4694 27.2782 43.6218 27.3979 43.7421C27.5175 43.8624 27.6822 43.9431 27.8638 43.9702L30.7378 44.356L32.2543 47.5067L30.5505 49.5242C30.4422 49.6539 30.3912 49.8124 30.4066 49.9715C30.422 50.1305 30.503 50.2796 30.6348 50.3922L35.4466 54.5235C35.5776 54.6366 35.7513 54.7061 35.9366 54.7194C36.1218 54.7326 36.3065 54.6888 36.4576 54.5958L38.8073 53.1249L42.477 54.4351L42.9357 56.8946C42.9645 57.0515 43.0577 57.1945 43.1984 57.2976C43.3392 57.4008 43.5182 57.4574 43.7033 57.4572H50.5184C50.7031 57.4562 50.8815 57.3992 51.0219 57.2962C51.1624 57.1933 51.256 57.051 51.286 56.8946L51.7354 54.427L55.4051 53.1249L57.7548 54.5878C57.9059 54.6808 58.0905 54.7246 58.2758 54.7113C58.461 54.6981 58.6347 54.6286 58.7658 54.5154L63.5776 50.3761C63.7094 50.2652 63.7904 50.1175 63.8059 49.9596C63.8214 49.8017 63.7702 49.6443 63.6618 49.5161L61.9487 47.4987L63.4746 44.348L66.3393 43.9541C66.5221 43.9294 66.6885 43.8494 66.8087 43.7286C66.9289 43.6077 66.9948 43.454 66.9945 43.2951V37.4438ZM62.8006 43.0861C62.6695 43.1047 62.5459 43.1512 62.4412 43.2214C62.3365 43.2916 62.2541 43.3833 62.2015 43.488L60.3479 47.3299C60.2976 47.4363 60.2798 47.5519 60.2962 47.6659C60.3125 47.7798 60.3626 47.8883 60.4415 47.9809L62.0143 49.8376L58.1293 53.1732L55.9667 51.8229C55.8605 51.7554 55.7358 51.7125 55.6046 51.6985C55.4734 51.6844 55.3402 51.6996 55.2179 51.7425L50.7431 53.342C50.6204 53.3839 50.5126 53.4528 50.4304 53.5416C50.3483 53.6305 50.2948 53.7362 50.275 53.8483L49.8537 56.1229H44.3679L43.9467 53.8564C43.9251 53.7438 43.8709 53.6377 43.7891 53.5478C43.7073 53.4579 43.6006 53.3872 43.4786 53.342L38.9945 51.7506C38.9021 51.7191 38.8037 51.7027 38.7043 51.7023C38.5389 51.6992 38.3771 51.7446 38.2456 51.8309L36.0831 53.1813L32.1981 49.8457L33.7709 47.989C33.8484 47.8956 33.8969 47.7868 33.9116 47.6729C33.9264 47.5589 33.9069 47.4437 33.8551 47.338L32.0015 43.5041C31.9515 43.3986 31.8712 43.3057 31.7681 43.234C31.665 43.1623 31.5424 43.1142 31.4118 43.0942L28.7625 42.7405V38.0305L31.4024 37.6689C31.5347 37.6501 31.6593 37.6027 31.7642 37.5309C31.8691 37.4592 31.9507 37.3655 32.0015 37.259L33.8551 33.417C33.9051 33.312 33.9228 33.1976 33.9064 33.085C33.89 32.9724 33.8401 32.8653 33.7615 32.7741L32.1887 30.9174L36.0737 27.5818L38.2363 28.9321C38.3433 28.9985 38.4685 29.0399 38.5997 29.0526C38.7309 29.0653 38.8636 29.0487 38.9851 29.0044L43.4599 27.413C43.5839 27.3704 43.6925 27.3004 43.7747 27.21C43.8569 27.1197 43.9098 27.0122 43.928 26.8986L44.3493 24.6321H49.8351L50.2563 26.8986C50.2779 27.0112 50.3321 27.1173 50.4139 27.2072C50.4957 27.2971 50.6024 27.3678 50.7244 27.413L55.2085 29.0044C55.3309 29.0474 55.4641 29.0626 55.5952 29.0485C55.7264 29.0344 55.8511 28.9916 55.9574 28.9241L58.1199 27.5738L62.0049 30.9013L60.4321 32.766C60.3549 32.8579 60.3066 32.9654 60.2918 33.078C60.2771 33.1907 60.2964 33.3046 60.3479 33.409L62.2015 37.2509C62.2503 37.3563 62.3305 37.4488 62.434 37.5193C62.5375 37.5899 62.6606 37.6358 62.7912 37.6528L65.4405 38.0145V42.7245L62.8006 43.0861ZM54.1788 41.2054C53.7012 40.8343 53.1331 40.5595 52.5161 40.401C51.899 40.2424 51.2485 40.2042 50.612 40.2891L47.2045 37.3634C47.3221 36.7151 47.2376 36.0515 46.9596 35.4403C46.6815 34.8291 46.2199 34.2921 45.6216 33.8837C45.0234 33.4754 44.3097 33.2105 43.5535 33.1158C42.7972 33.0211 42.0253 33.1001 41.3161 33.3447C41.1963 33.3859 41.0905 33.4525 41.0087 33.5382C40.9269 33.6239 40.8716 33.726 40.848 33.835C40.8223 33.9423 40.8277 34.0534 40.8636 34.1585C40.8995 34.2636 40.9649 34.3594 41.0541 34.4378L42.1868 35.4023C42.2957 35.5026 42.3551 35.6351 42.3523 35.7722C42.3496 35.9093 42.2849 36.0402 42.172 36.1371C42.0591 36.2341 41.9067 36.2896 41.747 36.2919C41.5874 36.2943 41.4328 36.2433 41.3161 36.1498L40.1928 35.1773C40.1007 35.0991 39.9878 35.0413 39.8638 35.0091C39.7398 34.9769 39.6085 34.9712 39.4813 34.9924C39.3557 35.0159 39.2388 35.0656 39.1409 35.137C39.0429 35.2085 38.9669 35.2997 38.9196 35.4023C38.5905 36.1067 38.5199 36.8806 38.7174 37.6204C38.9148 38.3602 39.3707 39.0305 40.0242 39.5416C40.4993 39.9159 41.0672 40.1929 41.685 40.3516C42.3028 40.5103 42.9545 40.5466 43.591 40.4579L46.9985 43.3835C46.8966 43.9613 46.9536 44.5515 47.1649 45.107C47.3762 45.6624 47.736 46.1677 48.2155 46.5824C48.6163 46.9292 49.0932 47.2044 49.6186 47.392C50.1441 47.5797 50.7076 47.676 51.2767 47.6755C51.8321 47.6758 52.3822 47.583 52.8962 47.4023C53.016 47.361 53.1218 47.2945 53.2037 47.2088C53.2855 47.1231 53.3407 47.021 53.3642 46.912C53.39 46.8047 53.3847 46.6936 53.3488 46.5885C53.3129 46.4834 53.2474 46.3875 53.1583 46.3092L52.035 45.3447C51.9278 45.2455 51.8695 45.1144 51.8725 44.979C51.8755 44.8437 51.9394 44.7146 52.0509 44.6189C52.1623 44.5231 52.3127 44.4683 52.4704 44.4657C52.628 44.4632 52.7806 44.5132 52.8962 44.6052L54.0196 45.5697C54.1117 45.6461 54.2241 45.702 54.3471 45.7327C54.4701 45.7633 54.5999 45.7678 54.7254 45.7456C54.8508 45.7234 54.9679 45.6754 55.0668 45.6055C55.1657 45.5356 55.2433 45.4461 55.2927 45.3447C55.6179 44.6392 55.6855 43.8654 55.4865 43.1261C55.2876 42.3868 54.8315 41.7169 54.1788 41.2054ZM54.0009 43.6648C53.593 43.3232 53.0449 43.1331 52.4751 43.1358C51.9053 43.1384 51.3596 43.3335 50.9561 43.6789C50.5526 44.0243 50.3236 44.4923 50.3188 44.9815C50.314 45.4707 50.5336 45.9419 50.9303 46.2931L50.9678 46.3253C50.343 46.2681 49.7607 46.0266 49.3202 45.6421C48.9762 45.3466 48.7285 44.9788 48.602 44.5754C48.4756 44.172 48.4746 43.7471 48.5993 43.3433C48.6348 43.2301 48.6344 43.1109 48.5982 42.9978C48.562 42.8848 48.4913 42.7821 48.3934 42.7003L44.396 39.2603C44.3235 39.1983 44.2373 39.1493 44.1425 39.1162C44.0476 39.083 43.9461 39.0665 43.8437 39.0674C43.7772 39.0675 43.7111 39.0756 43.6472 39.0915C43.1991 39.1944 42.7281 39.1996 42.277 39.107C41.8259 39.0144 41.4089 38.8268 41.0634 38.561C40.5675 38.1672 40.252 37.6341 40.174 37.058L40.2209 37.0902C40.6268 37.4387 41.1774 37.6345 41.7515 37.6345C42.3256 37.6345 42.8761 37.4387 43.2821 37.0902C43.688 36.7417 43.9161 36.269 43.9161 35.7761C43.9161 35.2832 43.688 34.8105 43.2821 34.4619L43.2446 34.4297C43.6399 34.4701 44.0204 34.5829 44.3605 34.7605C44.7006 34.938 44.9924 35.1762 45.2161 35.4589C45.4397 35.7416 45.5901 36.0622 45.6569 36.3991C45.7238 36.736 45.7057 37.0814 45.6037 37.4117C45.5688 37.525 45.5695 37.644 45.6056 37.757C45.6418 37.8699 45.7122 37.9726 45.8096 38.0547L49.807 41.4947C49.9044 41.5757 50.0246 41.6337 50.1557 41.6633C50.2869 41.6928 50.4246 41.6929 50.5558 41.6635C51.0039 41.5601 51.475 41.5546 51.9262 41.6472C52.3774 41.7398 52.7944 41.9278 53.1396 42.194C53.6314 42.5838 53.9466 43.1106 54.029 43.6809L54.0009 43.6648ZM54.1974 35.6112C52.918 34.2061 51.1123 33.2237 49.0861 32.8303C48.9855 32.8089 48.881 32.805 48.7786 32.8188C48.6762 32.8326 48.5783 32.8639 48.4902 32.9107C48.4021 32.9576 48.3257 33.0191 48.2657 33.0917C48.2058 33.1642 48.1633 33.2463 48.1408 33.3331C48.1184 33.42 48.1163 33.5098 48.1349 33.5973C48.1534 33.6849 48.1923 33.7683 48.2489 33.8427C48.3056 33.9172 48.379 33.9812 48.4649 34.0309C48.5508 34.0807 48.6475 34.1152 48.7491 34.1324C50.4221 34.4597 51.9129 35.2714 52.9711 36.4311C53.0449 36.5111 53.1387 36.5759 53.2457 36.6204C53.3527 36.665 53.4701 36.6882 53.589 36.6883C53.7617 36.6914 53.9303 36.6431 54.0663 36.5517C54.2275 36.441 54.3316 36.2805 54.3561 36.1045C54.3807 35.9286 54.3237 35.7514 54.1974 35.6112ZM55.686 38.0145L55.6766 37.9904C55.6126 37.8213 55.4733 37.6808 55.2892 37.5995C55.1051 37.5182 54.891 37.5027 54.6936 37.5563C54.5957 37.5828 54.505 37.6258 54.4268 37.6828C54.3485 37.7398 54.2845 37.8098 54.2382 37.8885C54.192 37.9671 54.1645 38.0529 54.1575 38.1408C54.1505 38.2287 54.1641 38.317 54.1974 38.4003L54.2068 38.4244C54.257 38.5591 54.3556 38.6768 54.4885 38.7606C54.6213 38.8443 54.7816 38.8898 54.9464 38.8906C55.0256 38.8877 55.1041 38.8769 55.1804 38.8584C55.2782 38.8316 55.3689 38.7884 55.4472 38.7314C55.5256 38.6745 55.5901 38.6049 55.6371 38.5265C55.684 38.4481 55.7125 38.3625 55.7209 38.2746C55.7293 38.1868 55.7174 38.0984 55.686 38.0145Z" fill="white"/>
</svg>
